<svg width="220" height="200" viewBox="0 0 220 200" fill="none" xmlns="http://www.w3.org/2000/svg">
<path d="M105.396 74.5044C86.4726 76.8419 71.5882 92.0356 69.6288 111.011C69.3366 113.812 69.5085 119.14 69.9897 121.839C70.7288 126.084 71.9663 129.831 73.8913 133.664L74.8538 135.589L71.9835 146.09C70.4022 151.882 69.1304 156.626 69.1647 156.643C69.1991 156.678 74.0116 155.423 79.8726 153.876C88.3976 151.625 90.6147 151.092 90.9585 151.229C91.1991 151.315 92.3163 151.814 93.4507 152.329C97.1288 153.996 100.996 155.096 105.069 155.646C107.905 156.025 112.873 156.025 115.623 155.646C124.663 154.375 132.724 150.387 139.084 144.028C142.418 140.711 144.635 137.668 146.732 133.526C148.623 129.797 149.963 125.723 150.719 121.426C151.149 118.917 151.149 111.509 150.719 108.879C149.98 104.428 148.829 100.87 146.887 96.9341C141.335 85.745 131.091 77.77 118.837 75.106C115.021 74.281 109.332 74.0232 105.396 74.5044ZM116.138 81.62C121.071 82.531 125.162 84.181 129.201 86.8794C136.11 91.5028 141.18 98.67 143.191 106.611C144.669 112.454 144.549 119.089 142.882 124.709C140.166 133.784 133.721 141.432 125.265 145.557C120.349 147.964 115.812 149.012 110.294 149.012C103.969 149.012 98.3835 147.482 92.6601 144.182L91.6976 143.632L85.3726 145.3C81.9007 146.211 79.0132 146.932 78.996 146.898C78.9616 146.864 79.6663 144.148 80.5772 140.848C81.471 137.548 82.2272 134.729 82.2272 134.592C82.2444 134.437 81.7976 133.578 81.2476 132.684C73.1351 119.484 75.2663 102.09 86.3179 91.0903C91.8179 85.6247 98.796 82.256 106.599 81.2935C108.713 81.0357 113.973 81.2247 116.138 81.62Z" fill="#515938"/>
<path d="M94.2411 96.6245C93.2614 97.1057 91.4395 99.2542 90.6833 100.835C89.1879 103.929 89.2223 107.848 90.7692 111.457C92.6598 115.909 97.627 122.234 102.525 126.428C105.963 129.367 108.833 131.103 113.044 132.753C117.358 134.437 118.183 134.626 121.036 134.626C123.288 134.626 123.649 134.592 124.68 134.196C126.399 133.543 127.688 132.735 128.96 131.481C129.957 130.501 130.163 130.192 130.49 129.16C130.885 127.854 131.125 125.774 130.936 125.053C130.85 124.674 130.352 124.365 127.911 123.145C123.443 120.91 121.638 120.137 120.882 120.137C120.246 120.137 120.143 120.206 119.386 121.203C117.65 123.488 116.052 125.259 115.64 125.362C115.141 125.482 114.161 125.121 111.91 123.987C108.249 122.165 105.275 119.707 102.715 116.424C101.322 114.637 100.068 112.609 100.068 112.128C100.068 111.939 100.721 110.924 101.511 109.893C103.058 107.882 103.505 107.126 103.505 106.559C103.505 106.37 103.161 105.424 102.766 104.445C102.354 103.482 101.529 101.489 100.927 100.028C100.171 98.2057 99.6551 97.1917 99.277 96.7963L98.727 96.2463H96.8708C95.3067 96.2463 94.877 96.3151 94.2411 96.6245Z" fill="#515938"/>
<path d="M192.976 115.563C192.976 161.127 156.039 198.063 110.476 198.063C64.9121 198.063 27.9756 161.127 27.9756 115.563C27.9756 69.9999 64.9121 33.0635 110.476 33.0635C156.039 33.0635 192.976 69.9999 192.976 115.563Z" stroke="#515938" stroke-width="2.2" stroke-linecap="round" stroke-linejoin="round" stroke-dasharray="6.6 11"/>
<path d="M13.5767 64.7548L13.6232 64.9173L13.7223 65.1591C13.8854 65.5899 14.0906 65.9429 14.3379 66.2182C14.592 66.4772 14.9707 66.712 15.474 66.9226L15.7419 67.0348C14.8573 67.3704 14.0862 67.8681 13.4285 68.5277C12.7708 69.1873 12.2041 70.0854 11.7284 71.2218C10.6683 73.7545 10.4453 76.0652 11.0592 78.1538C11.6732 80.2424 13.09 81.8944 15.3097 83.1096C15.4747 83.2169 15.6628 83.3146 15.8738 83.403C16.0849 83.4913 16.2472 83.5593 16.3609 83.6068C18.5364 84.5174 20.6307 84.5736 22.6438 83.7754C24.6569 82.9772 26.0916 81.5553 26.9478 79.5096C27.0022 79.3798 27.0565 79.2499 27.1109 79.12C27.16 78.9116 27.2049 78.7587 27.2457 78.6613C27.8527 76.664 27.7239 74.6926 26.8593 72.747C26.7932 72.5858 26.6792 72.3568 26.5172 72.0601C26.3458 71.7403 26.2202 71.516 26.1405 71.3873L26.5443 71.5849L26.9969 71.803L27.4352 71.9864L27.8979 72.1801C28.317 73.3667 28.5168 74.5761 28.4972 75.808C28.4614 77.0332 28.1716 78.2952 27.628 79.594C26.6834 81.8507 25.4994 83.5397 24.0761 84.6611C22.6365 85.7757 20.8965 86.3544 18.8562 86.3971C18.1698 86.396 17.5059 86.3184 16.8644 86.1644C16.2135 85.9873 15.4741 85.7255 14.6461 85.379C12.1945 84.3528 10.5774 82.6552 9.79467 80.2861C9.00248 77.8939 9.21458 75.2448 10.431 72.3387L10.7838 71.4274L13.5767 64.7548Z" fill="#515938"/>
<path d="M34.341 57.3163C35.4361 58.0533 36.179 58.9669 36.5697 60.0571C36.9604 61.1473 36.9604 62.2823 36.5697 63.4619C36.3572 64.0614 36.0937 64.5947 35.7793 65.062C34.9343 66.3177 33.7911 67.0865 32.3499 67.3683C30.9039 67.6256 29.5238 67.3122 28.2096 66.4278C27.1291 65.7007 26.3959 64.8042 26.01 63.7384C25.6193 62.6482 25.6096 61.4961 25.981 60.2823C26.1982 59.7072 26.4444 59.2153 26.7196 58.8064C27.0143 58.3684 27.3774 57.955 27.8086 57.5664C28.7932 56.7652 29.8592 56.3475 31.0064 56.3134C32.1489 56.2549 33.2605 56.5892 34.341 57.3163ZM33.2798 58.8933C31.9802 58.0188 30.7689 57.6279 29.6458 57.7207C28.5325 57.7989 27.6958 58.2541 27.1357 59.0864C26.5658 59.9333 26.4495 60.8627 26.7869 61.8747C27.1579 62.9941 28.0151 64.0058 29.3585 64.9098C29.7089 65.1456 30.1131 65.3646 30.5711 65.5667C31.6822 65.9962 32.6481 66.137 33.4688 65.9892C34.2848 65.817 34.9335 65.3732 35.4149 64.6577C35.9848 63.8108 36.1084 62.8863 35.7857 61.8842C35.4293 60.7746 34.594 59.7776 33.2798 58.8933Z" fill="#515938"/>
<path d="M42.0775 46.6477C42.5534 46.9616 43.0451 47.3495 43.5529 47.8114C44.0216 48.2378 44.4198 48.6239 44.7476 48.9697C45.0624 49.3037 45.4328 49.7596 45.8588 50.3375L46.56 51.3322L45.423 52.582C45.0586 51.7271 44.5747 50.9775 43.9711 50.3333C42.1224 48.6515 40.5742 47.6594 39.3265 47.3571C38.0657 47.043 37.0327 47.3285 36.2273 48.2138C36.0141 48.4481 35.8335 48.7121 35.6854 49.0056C35.4283 49.6283 35.3174 50.1817 35.3528 50.6659C35.3869 51.1253 35.5277 51.4675 35.7751 51.6925L40.579 56.0628C40.7222 56.1931 40.9022 56.3092 41.1188 56.411C41.2218 56.4809 41.4248 56.5585 41.7278 56.6439L40.1112 58.421C40.0415 58.0007 39.8244 57.6247 39.4598 57.2931L34.8316 53.0827C34.415 52.7037 33.9244 52.4715 33.3597 52.3861C32.7938 52.2758 32.2296 52.3336 31.6672 52.5595L31.4292 52.6642L31.9959 52.002C32.2802 51.6896 32.5277 51.3913 32.7386 51.1072C32.9364 50.8113 33.1265 50.4846 33.3089 50.1272L33.4493 49.9336L33.5684 49.6851L34.6424 50.6622L34.6887 50.4544L34.7474 50.1152L34.9537 49.3393C35.2677 48.3401 35.709 47.5281 36.2775 46.9032C37 46.1091 37.8709 45.6879 38.8902 45.6397C39.9096 45.5915 40.972 45.9275 42.0775 46.6477Z" fill="#515938"/>
<path d="M48.7388 37.1104L48.4526 37.4255C47.6645 38.1016 47.4358 38.8892 47.7664 39.7881L47.4455 39.333L46.99 38.6803C46.7837 38.4399 46.544 38.3092 46.271 38.2883C45.998 38.2675 45.748 38.3544 45.5209 38.5493C45.2137 38.8128 45.0478 39.1871 45.0232 39.672C45.0119 40.1454 45.1668 40.7314 45.4878 41.4299C45.6808 41.8441 45.8977 42.1914 46.1383 42.4719L50.6764 47.7616C50.7413 47.7292 50.7938 47.6957 50.8338 47.6614C50.8739 47.627 50.9006 47.6041 50.914 47.5926C51.0342 47.4895 51.2622 47.12 51.5979 46.4841C51.6837 46.3409 51.8068 46.2006 51.9671 46.063C52.2476 45.8224 52.7552 45.468 53.49 45L54.1169 44.6361L54.2343 44.5702L54.4261 44.5099C54.4281 44.6474 54.4043 44.7953 54.3547 44.9538C54.3166 45.1256 54.2451 45.3261 54.1402 45.5552C54.0468 45.7977 53.8532 46.045 53.5593 46.2971C53.3589 46.469 53.1165 46.619 52.8322 46.747C52.5592 46.8884 52.273 47.0413 51.9733 47.2056C51.6851 47.3832 51.501 47.5064 51.4208 47.5752C51.3006 47.6783 51.1556 47.8607 50.9858 48.1223L54.3206 52.0094L53.9206 54.057L44.9304 43.5778C44.6554 43.2572 44.3298 43.0264 43.9537 42.8853C43.5661 42.7308 43.0487 42.6413 42.4015 42.6168L41.7687 42.5684L42.9538 41.7603C43.1885 41.6285 43.3393 41.534 43.4061 41.4767C43.5111 41.4098 43.617 41.3305 43.7238 41.2389C43.9376 41.0555 44.1121 40.7318 44.2474 40.2679C44.7069 38.8302 45.157 37.9223 45.5978 37.5441C45.8917 37.292 46.324 37.1067 46.8947 36.9881C47.4788 36.858 48.0935 36.8988 48.7388 37.1104Z" fill="#515938"/>
<path d="M50.1627 30.7419C50.0773 31.1062 49.8987 31.3857 49.6268 31.5804C49.3693 31.7649 49.0543 31.839 48.6819 31.8027C48.293 31.7132 48.0063 31.5396 47.8219 31.2821C47.6066 30.9816 47.5346 30.6544 47.6057 30.3003C47.6666 29.932 47.8401 29.6453 48.1263 29.4403C48.4125 29.2354 48.7326 29.1684 49.0866 29.2396C49.4304 29.2964 49.7099 29.475 49.9251 29.7755C50.1404 30.076 50.2196 30.3981 50.1627 30.7419ZM58.4724 41.4813L56.5409 42.8649L56.3958 42.2544C56.33 42.0417 56.2306 41.8423 56.0973 41.6563L52.0695 36.0333C51.7928 35.647 51.5551 35.4059 51.3565 35.31C51.1477 35.1998 50.8285 35.147 50.3988 35.1517L49.3985 35.2512L52.1456 33.2834L57.4494 40.6878L57.8828 41.1568C57.9381 41.2038 58.0005 41.2456 58.0701 41.2823C58.1951 41.3661 58.3292 41.4324 58.4724 41.4813Z" fill="#515938"/>
<path d="M69.9378 33.9082L69.7327 34.2396C69.4263 34.6598 69.1282 34.9533 68.8384 35.1202C68.3504 35.4013 67.5667 35.4159 66.4874 35.1642L66.2483 35.1191L64.6259 34.6826L64.3014 34.5953C63.2878 34.3869 62.6423 34.2712 62.365 34.2482C62.0789 34.2099 61.8235 34.2249 61.5989 34.2933L61.0595 34.5735L62.5352 37.1357C62.7372 37.4865 62.9346 37.7587 63.1274 37.9524L63.4034 38.2199L61.5275 39.3003C61.5108 38.8834 61.3663 38.4386 61.094 37.9658L57.6288 31.9491C57.2511 31.2933 56.6615 30.922 55.86 30.8352L55.5161 30.82C55.664 30.6536 55.8676 30.4958 56.1269 30.3464C56.5081 30.1268 56.9541 30.002 57.4649 29.9719L58.1561 30.0612C58.5867 28.9399 59.3053 28.0893 60.3119 27.5096C60.7695 27.2461 61.3134 27.0445 61.9439 26.9048C63.1437 26.6606 64.0027 26.9884 64.521 27.8883C64.7581 28.3001 64.8428 28.7997 64.7749 29.3872C64.6983 29.9594 64.5058 30.5069 64.1976 31.0296C63.8959 31.5284 63.3871 32.1261 62.6712 32.8227L62.2567 33.2138L62.0771 33.3781L61.8747 33.5556C62.4982 33.2981 63.1013 33.164 63.6842 33.1533C64.2735 33.1185 64.9723 33.2035 65.7807 33.4081L65.8529 33.4275L67.2624 33.8648C67.9049 34.0635 68.4117 34.1676 68.7828 34.1773C69.154 34.187 69.539 34.0972 69.9378 33.9082ZM63.3621 29.8962C63.3371 29.606 63.2455 29.3236 63.0874 29.049C62.657 28.3017 61.9923 27.994 61.0933 28.1258C60.7486 28.1619 60.4236 28.2678 60.1186 28.4435C59.8288 28.6104 59.5481 28.8635 59.2764 29.2028C59.0046 29.5421 58.832 29.8243 58.7586 30.0494C58.6763 30.2592 58.6791 30.4404 58.767 30.5929L60.7038 33.9558L61.1482 33.6694C61.9648 33.0773 62.5466 32.4477 62.8936 31.7807C63.2559 31.1049 63.412 30.4767 63.3621 29.8962Z" fill="#515938"/>
<path d="M87.4041 26.414L87.5604 27.6469L85.9676 28.2106C86.0017 27.041 85.7721 25.7594 85.2788 24.3657C85.1849 24.1002 85.088 23.8265 84.9882 23.5444C84.7974 23.1638 84.6385 22.8467 84.5114 22.593C84.3784 22.3227 84.2547 22.1051 84.1403 21.9402C84.0425 21.7694 83.8421 21.467 83.5391 21.0328C83.1002 20.4787 82.5591 20.1101 81.9155 19.9271C81.2827 19.7217 80.6511 19.7306 80.0206 19.9537C79.4067 20.171 78.8574 20.5708 78.3728 21.1531C78.2635 21.2664 78.128 21.4637 77.9662 21.7451L78.1098 21.8343L78.2036 21.9411C78.526 22.219 78.8886 22.7161 79.2915 23.4323C79.4235 23.647 79.5536 23.909 79.6817 24.2184C79.8099 24.5277 79.9562 24.9147 80.1206 25.3793C80.4084 26.1922 80.6933 27.1556 80.9755 28.2692L81.2888 29.8666L79.6961 30.4304C79.6927 29.9462 79.665 29.4986 79.6129 29.0876C79.5715 28.6542 79.4803 28.2384 79.3394 27.8402C78.482 25.4178 77.5946 23.7809 76.6771 22.9294C75.7762 22.0721 74.7948 21.8313 73.733 22.2072C73.4509 22.307 73.1865 22.4566 72.9397 22.656C72.4899 23.0205 72.1828 23.4186 72.0182 23.8503C71.8536 24.282 71.827 24.6554 71.9386 24.9707L74.1055 31.0929C74.1701 31.2754 74.2738 31.4627 74.4165 31.6549L74.8431 32.1481L72.5783 32.9496C72.7205 32.5073 72.7152 32.0704 72.5625 31.639L70.4749 25.7408C70.2987 25.243 70.0524 24.8635 69.7358 24.6021C69.4134 24.3242 68.905 24.0747 68.2107 23.8537L67.8489 23.7017L68.5618 23.4214C68.8936 23.3039 69.1947 23.1787 69.465 23.0457C69.746 22.8902 70.068 22.6922 70.431 22.4517L70.6959 22.33L70.9432 22.1584L71.4277 23.5272L71.8125 23.111C72.8952 22.0556 73.9011 21.3635 74.8302 21.0347C75.328 20.8585 75.7917 20.7971 76.2213 20.8504C76.645 20.8871 77.0122 21.0279 77.3229 21.2726L77.7574 20.8388C78.604 19.9604 79.3426 19.4096 79.9731 19.1864C81.4829 18.652 82.755 18.6592 83.7893 19.2079C84.936 19.8102 85.85 21.0737 86.5312 22.9983C86.86 23.9274 87.151 25.066 87.4041 26.414Z" fill="#515938"/>
<path d="M102.354 25.2275L100.528 25.511L98.6134 22.816L98.3791 23.1997C97.6994 24.2136 97.0528 24.9819 96.4393 25.5046C95.8259 26.0273 95.152 26.3902 94.4176 26.5932C94.3334 26.6241 94.1956 26.6544 94.0043 26.6841C93.1347 26.8191 92.3496 26.6382 91.6491 26.1414C90.9633 25.6245 90.5556 24.9486 90.426 24.1138C90.2856 23.2095 90.4978 22.3394 91.0627 21.5037C91.6276 20.6679 92.5532 19.9186 93.8395 19.2558C94.0521 19.1338 94.3169 19.0036 94.6338 18.8654C94.9682 18.7244 95.2892 18.6122 95.5968 18.5289L94.6436 17.2074C94.1731 16.5859 93.5726 16.3318 92.8421 16.4452C92.5639 16.4884 92.3125 16.5898 92.0879 16.7493C92.2816 16.5055 92.4486 16.3193 92.5889 16.1906C92.7265 16.0446 92.9384 15.8603 93.2244 15.6378L93.4871 15.4367C93.7611 15.2517 93.8843 14.8407 93.8567 14.2038L94.1239 14.3761L94.3088 14.5344C94.7763 14.9071 95.3069 15.457 95.9007 16.1841L96.2988 16.6833L102.354 25.2275ZM98.4002 22.4751L95.8402 18.8918C95.2836 18.9782 94.8088 19.1321 94.4157 19.3534C92.5225 20.4666 91.6866 21.7363 91.908 23.1624C92.0214 23.8929 92.3246 24.4692 92.8176 24.8913C93.3253 25.2934 93.9357 25.4391 94.6487 25.3284C94.8025 25.2867 94.9142 25.2605 94.9838 25.2497C95.4453 25.1246 95.8625 24.944 96.2355 24.708C96.6259 24.4693 97.0363 24.1295 97.4665 23.6887C97.6656 23.4797 97.8179 23.3135 97.9235 23.1903C98.0263 23.0497 98.1852 22.8113 98.4002 22.4751Z" fill="#515938"/>
<path d="M114.497 24.5148L114.157 24.7048C113.685 24.9233 113.282 25.0352 112.947 25.0403C112.384 25.049 111.692 24.6813 110.871 23.9371L110.684 23.7815L109.478 22.612L109.236 22.3781C108.451 21.7038 107.943 21.2892 107.712 21.1343C107.481 20.9619 107.25 20.851 107.021 20.8018L106.413 20.7847L106.459 23.7412C106.465 24.1459 106.505 24.4797 106.58 24.7426L106.691 25.1106L104.526 25.144C104.714 24.7714 104.804 24.3124 104.796 23.7669L104.688 16.8245C104.677 16.0678 104.342 15.4569 103.683 14.9918L103.39 14.8115C103.6 14.7378 103.855 14.6987 104.154 14.6941C104.594 14.6873 105.044 14.7948 105.505 15.0165L106.066 15.4303C106.987 14.6591 108.029 14.2646 109.19 14.2467C109.718 14.2385 110.291 14.3265 110.91 14.5106C112.078 14.8798 112.669 15.5835 112.685 16.6218C112.693 17.0969 112.524 17.5748 112.18 18.0554C111.835 18.5184 111.401 18.9035 110.877 19.2108C110.371 19.5003 109.636 19.7756 108.672 20.037L108.12 20.1775L107.883 20.234L107.62 20.2908C108.29 20.3685 108.882 20.5442 109.397 20.8179C109.929 21.0737 110.499 21.4873 111.106 22.0588L111.16 22.1108L112.179 23.1776C112.645 23.6633 113.037 24.0004 113.357 24.1891C113.677 24.3778 114.057 24.4864 114.497 24.5148ZM110.697 17.8142C110.816 17.5484 110.873 17.257 110.869 16.9403C110.855 16.078 110.424 15.4862 109.574 15.1649C109.255 15.029 108.919 14.9637 108.567 14.9692C108.233 14.9743 107.865 15.0592 107.462 15.2239C107.06 15.3885 106.772 15.5514 106.599 15.7125C106.425 15.856 106.339 16.0157 106.342 16.1917L106.402 20.072L106.93 20.0375C107.931 19.9164 108.745 19.6486 109.373 19.2341C110.017 18.8192 110.459 18.346 110.697 17.8142Z" fill="#515938"/>
<path d="M134.493 25.969C133.836 26.5821 133.095 27.0056 132.269 27.2395C131.447 27.4562 130.572 27.463 129.643 27.2601C128.44 26.997 127.5 26.4762 126.823 25.6978L126.677 25.5036L126.53 25.3094L125.78 28.7396C125.581 29.6509 125.752 30.4358 126.292 31.0945C125.596 31.2305 125.115 31.3687 124.85 31.509L123.764 32.0282C123.505 32.0615 123.399 31.9664 123.448 31.7429L126.233 19.0021C126.432 18.0908 126.391 17.2892 126.11 16.5972C125.941 16.2179 125.717 15.8808 125.439 15.5859C125.668 15.5278 125.92 15.5288 126.195 15.589C126.642 15.6867 127.126 15.9904 127.645 16.5003L128.111 17.0885L128.382 16.9587L128.637 16.9063C129.659 16.5171 130.754 16.4503 131.923 16.7059C132.284 16.7848 132.633 16.8791 132.97 16.9886C133.306 17.0982 133.609 17.2365 133.879 17.4035C134.843 17.9385 135.536 18.7207 135.96 19.7501C136.405 20.766 136.508 21.8156 136.272 22.8988C136.016 24.068 135.423 25.0914 134.493 25.969ZM134.198 22.7428C134.521 21.2641 134.453 20.0512 133.993 19.104C133.538 18.1397 132.82 17.5504 131.84 17.3361C131.375 17.2347 130.871 17.2326 130.328 17.3299L129.59 17.4929C129.082 17.6703 128.697 17.8654 128.435 18.0782C128.172 18.291 128.016 18.5091 127.967 18.7327L126.953 23.3751C126.904 23.5986 126.944 23.8686 127.073 24.185C127.219 24.5052 127.487 24.888 127.876 25.3333L128.45 25.9184C128.872 26.2987 129.349 26.5471 129.882 26.6636C130.621 26.8252 131.345 26.6862 132.054 26.2466C132.766 25.7898 133.338 25.0681 133.77 24.0816C133.961 23.6189 134.104 23.1727 134.198 22.7428Z" fill="#515938"/>
<path d="M147.943 32.4519L147.557 32.5029C147.037 32.5317 146.621 32.4868 146.309 32.3682C145.782 32.1683 145.275 31.571 144.786 30.5762L144.67 30.3625L143.981 28.8303L143.843 28.5239C143.362 27.6074 143.043 27.0345 142.886 26.8052C142.734 26.5595 142.561 26.3713 142.366 26.2408L141.807 26.0007L140.758 28.7651C140.615 29.1435 140.529 29.4687 140.501 29.7405L140.468 30.1235L138.445 29.3554C138.757 29.0785 139.01 28.685 139.203 28.1749L141.667 21.6835C141.935 20.9759 141.849 20.2845 141.409 19.6092L141.203 19.3333C141.426 19.3425 141.677 19.4001 141.956 19.5063C142.368 19.6624 142.747 19.9286 143.094 20.3049L143.462 20.8965C144.603 20.5199 145.716 20.5377 146.802 20.9498C147.296 21.1372 147.796 21.4306 148.303 21.8302C149.252 22.6044 149.542 23.4769 149.174 24.4477C149.005 24.892 148.672 25.2738 148.174 25.5932C147.683 25.8961 147.137 26.0938 146.537 26.1862C145.96 26.2684 145.175 26.2529 144.183 26.1398L143.618 26.0665L143.377 26.0316L143.111 25.9873C143.705 26.3068 144.191 26.6888 144.568 27.1332C144.968 27.5674 145.345 28.1621 145.698 28.9174L145.729 28.9855L146.283 30.3535C146.536 30.9766 146.776 31.4348 147.003 31.7282C147.231 32.0216 147.544 32.2629 147.943 32.4519ZM146.886 24.8218C147.094 24.6187 147.255 24.3691 147.367 24.0729C147.673 23.2666 147.491 22.5572 146.82 21.9449C146.573 21.7008 146.286 21.5163 145.957 21.3914C145.644 21.2728 145.27 21.2157 144.836 21.2202C144.401 21.2246 144.073 21.2697 143.853 21.3553C143.638 21.4245 143.5 21.5414 143.437 21.7059L142.06 25.3342L142.563 25.4969C143.539 25.7541 144.394 25.8059 145.13 25.6523C145.883 25.5048 146.468 25.228 146.886 24.8218Z" fill="#515938"/>
<path d="M158.718 36.3222L158.286 36.5087C157.432 36.8664 156.639 37.0173 155.909 36.9617C155.194 36.9144 154.449 36.6811 153.676 36.2617C152.546 35.6495 151.766 34.596 151.335 33.1012C151.115 32.3615 151.045 31.6228 151.125 30.8852C151.204 30.1476 151.42 29.4538 151.772 28.8039C151.823 28.7111 151.889 28.607 151.972 28.4916C152.054 28.3762 152.112 28.2875 152.146 28.2256C152.896 27.2109 153.773 26.5351 154.776 26.1981C155.875 25.8328 156.915 25.8357 157.895 26.2068C158.229 26.3281 158.543 26.4684 158.837 26.6278C159.859 27.1813 160.548 27.8853 160.906 28.7398C161.279 29.6027 161.272 30.39 160.887 31.1017L154.666 27.7302L154.396 28.0638C153.925 28.7098 153.569 29.2571 153.325 29.7058C153.091 30.1391 152.92 30.5272 152.814 30.8702C152.537 31.8612 152.593 32.812 152.98 33.7226C153.376 34.6177 154.022 35.3085 154.92 35.7949C155.585 36.1556 156.288 36.3363 157.028 36.3372L157.228 36.3556L158.069 36.3007C158.164 36.2724 158.38 36.2795 158.718 36.3222ZM159.524 29.7927C159.731 29.264 159.71 28.7121 159.461 28.1368C159.212 27.5616 158.825 27.1314 158.299 26.8462C158.036 26.7036 157.735 26.611 157.398 26.5684C157.069 26.5102 156.726 26.5343 156.368 26.6406C156.01 26.7469 155.646 26.9396 155.274 27.2187L155.068 27.3773L159.524 29.7927Z" fill="#515938"/>
<path d="M171.91 38.2658C171.588 38.139 171.308 38.0752 171.068 38.0743C170.829 38.0734 170.381 38.1487 169.724 38.3003L169.091 38.36C169.379 38.2653 169.619 38.1465 169.811 38.0036C170.013 37.8465 170.192 37.6615 170.348 37.4486C170.692 36.9801 170.817 36.4824 170.723 35.9554C170.654 35.4246 170.371 34.9771 169.874 34.613C169.278 34.176 168.709 33.9991 168.168 34.0825C167.571 34.2123 167.101 34.5113 166.757 34.9798C166.518 35.3063 166.383 35.6545 166.351 36.0244C166.32 36.3944 166.414 36.7577 166.633 37.1144C166.862 37.4569 167.055 37.7293 167.212 37.9318C167.383 38.1446 167.661 38.4795 168.047 38.9364L168.561 39.575C169.005 40.0102 169.293 40.5262 169.422 41.1233C169.552 41.7203 169.419 42.2885 169.024 42.8279C168.566 43.4524 167.938 43.7885 167.139 43.8359C166.355 43.8938 165.589 43.7473 164.843 43.3964C164.355 43.1695 163.926 42.9207 163.557 42.6502C162.563 41.9218 161.936 41.0803 161.676 40.1257C161.44 39.1672 161.583 38.2575 162.105 37.3963L162.381 37.4672L162.497 37.4871L163.17 37.6856L163.408 37.7622C163.726 37.8644 164.209 37.8907 164.856 37.8414L164.625 37.9337C164.38 38.0596 164.163 38.2063 163.975 38.3738C163.797 38.5271 163.635 38.7032 163.489 38.9019C163.136 39.3845 162.983 39.9054 163.031 40.4646C163.104 41.02 163.384 41.5309 163.872 41.9972C164.05 42.1713 164.181 42.2895 164.266 42.352C164.692 42.6641 165.141 42.8405 165.613 42.8811C166.086 42.9217 166.514 42.8431 166.899 42.6452C167.176 42.4767 167.407 42.2648 167.595 42.0093C167.823 41.697 167.946 41.3506 167.963 40.9703C168.005 40.5861 167.925 40.2332 167.725 39.9115C167.538 39.6003 167.299 39.272 167.006 38.9267C166.739 38.5776 166.324 38.1316 165.761 37.5886C165.64 37.4562 165.54 37.3393 165.462 37.2381C165.444 37.2031 165.367 37.0702 165.23 36.8393C165.004 36.4335 164.911 35.9945 164.952 35.5223C165.003 35.036 165.164 34.6083 165.434 34.2392C165.861 33.6572 166.431 33.3113 167.144 33.2013C167.636 33.1256 168.136 33.143 168.644 33.2536C169.153 33.3642 169.641 33.5911 170.109 33.9345C171.983 35.308 172.583 36.7517 171.91 38.2658Z" fill="#515938"/>
<path d="M178.011 51.9705L177.545 52.0366C176.627 52.1562 175.822 52.0929 175.132 51.8465C174.455 51.6123 173.799 51.1909 173.163 50.5824C172.235 49.6939 171.76 48.4719 171.739 46.9164C171.722 46.145 171.849 45.414 172.12 44.7235C172.391 44.0329 172.783 43.4206 173.294 42.8867C173.367 42.8104 173.458 42.7275 173.569 42.638C173.679 42.5484 173.758 42.4782 173.807 42.4274C174.798 41.6464 175.822 41.2258 176.879 41.1654C178.035 41.1028 179.037 41.3797 179.884 41.9961C180.175 42.2014 180.441 42.4196 180.683 42.6509C181.522 43.4542 182.001 44.3151 182.121 45.2336C182.253 46.1643 182.039 46.9221 181.48 47.5069L176.369 42.6142L176.02 42.8646C175.396 43.3637 174.907 43.7976 174.554 44.1662C174.213 44.5222 173.947 44.8517 173.754 45.1546C173.226 46.0375 173.028 46.9692 173.162 47.9497C173.307 48.9175 173.749 49.7543 174.486 50.4602C175.033 50.9835 175.663 51.3432 176.377 51.5393L176.565 51.6099L177.39 51.7786C177.49 51.7764 177.697 51.8404 178.011 51.9705ZM180.511 45.8849C180.849 45.4294 180.974 44.8914 180.886 44.2709C180.798 43.6504 180.538 43.1333 180.106 42.7195C179.889 42.5126 179.624 42.3441 179.31 42.214C179.008 42.0712 178.671 42.0039 178.298 42.012C177.924 42.0202 177.522 42.1099 177.09 42.2811L176.849 42.3797L180.511 45.8849Z" fill="#515938"/>
<path d="M189.612 59.3031C189.225 59.7215 188.762 60.1435 188.223 60.5692C187.726 60.9622 187.28 61.2922 186.886 61.5594C186.505 61.8156 185.995 62.1067 185.355 62.4329L184.26 62.9627L183.212 61.6373C184.115 61.4171 184.933 61.0617 185.667 60.5711C187.627 59.021 188.858 57.6551 189.36 56.4733C189.875 55.2806 189.762 54.2148 189.019 53.276C188.823 53.0275 188.592 52.8063 188.326 52.6123C187.754 52.2572 187.226 52.0577 186.743 52.0137C186.284 51.9726 185.923 52.0557 185.661 52.2631L180.566 56.2911C180.415 56.4111 180.271 56.5697 180.135 56.7669C180.049 56.8571 179.94 57.0447 179.806 57.3298L178.316 55.4453C178.742 55.445 179.148 55.292 179.535 54.9864L184.443 51.1058C184.885 50.7565 185.194 50.3102 185.37 49.767C185.571 49.2267 185.606 48.6606 185.475 48.0689L185.41 47.817L185.971 48.4841C186.233 48.8154 186.487 49.1082 186.733 49.3625C186.993 49.6059 187.284 49.8467 187.607 50.0849L187.775 50.2549L188.001 50.4129L186.862 51.3134L187.059 51.3929L187.385 51.5061L188.117 51.836C189.051 52.3086 189.78 52.8763 190.304 53.539C190.97 54.3811 191.244 55.309 191.125 56.3226C191.007 57.3362 190.502 58.3297 189.612 59.3031Z" fill="#515938"/>
<path d="M193.282 72.8342L193.05 72.9087C192.478 73.0808 191.916 73.0628 191.366 72.8548C190.816 72.6467 190.17 72.1887 189.429 71.4806L188.789 70.7539L188.183 70.7113C187.812 71.5406 187.346 72.1197 186.784 72.4489C185.979 72.9204 185.163 72.868 184.336 72.2918C183.88 71.9671 183.559 71.6452 183.372 71.3263C183.186 71.0074 183.109 70.6851 183.143 70.3595C183.185 70.049 183.305 69.7137 183.502 69.3536L185.171 69.5387C185.023 69.5643 184.88 69.6171 184.743 69.6972C184.47 69.8573 184.292 70.0939 184.211 70.4069C184.027 70.9634 184.033 71.4087 184.228 71.7428C184.424 72.0769 184.844 72.2896 185.489 72.3809C185.592 72.382 185.689 72.3559 185.78 72.3025C185.993 72.178 186.234 71.8937 186.504 71.4498C186.667 71.1708 186.881 70.7701 187.146 70.2477L188.576 70.3895C187.642 68.7949 187.574 67.1823 188.373 65.5516C189.023 64.2937 189.857 63.3667 190.874 62.7707C191.725 62.2725 192.637 62.0542 193.612 62.1158C194.61 62.1836 195.553 62.5392 196.439 63.1824C196.862 63.4857 197.194 63.791 197.435 64.0984C197.691 64.397 197.9 64.6829 198.06 64.9562C198.549 65.7915 198.771 66.6405 198.726 67.5033C198.714 68.0405 198.593 68.5298 198.362 68.971C197.799 68.8112 197.304 68.5403 196.876 68.1585L196.495 67.7697C196.659 67.7352 196.816 67.6734 196.968 67.5845C197.317 67.3799 197.55 67.0805 197.666 66.6862C197.806 66.2983 197.764 65.9145 197.542 65.5349C197.477 65.3893 197.427 65.2861 197.391 65.2254C196.911 64.4053 196.119 63.8899 195.017 63.6791C193.938 63.4746 192.898 63.6659 191.896 64.253C191.562 64.4487 191.247 64.6944 190.951 64.9901C189.907 66.0296 189.321 67.1177 189.191 68.2543L189.179 68.965C189.205 69.7048 189.369 70.3329 189.671 70.8492C190.098 71.5782 190.833 72.1368 191.877 72.5251L192.947 72.7854L193.282 72.8342Z" fill="#515938"/>
<path d="M196.568 86.9281L195.868 85.2181L198.043 82.7289L197.615 82.5903C196.471 82.1653 195.573 81.7153 194.922 81.2403C194.271 80.7653 193.761 80.1944 193.393 79.5275C193.343 79.4527 193.282 79.3258 193.208 79.1466C192.875 78.3324 192.868 77.5268 193.188 76.7299C193.531 75.9426 194.093 75.3888 194.875 75.0684C195.722 74.7214 196.618 74.7253 197.562 75.0801C198.506 75.4349 199.45 76.1607 200.394 77.2574C200.562 77.4358 200.751 77.663 200.959 77.939C201.174 78.2314 201.358 78.5174 201.51 78.7972L202.574 77.5626C203.069 76.9604 203.176 76.3172 202.896 75.6332C202.789 75.3727 202.632 75.1517 202.424 74.9705C202.706 75.1021 202.926 75.2212 203.084 75.3277C203.258 75.4275 203.487 75.5907 203.77 75.8171L204.026 76.0257C204.27 76.2492 204.699 76.2733 205.312 76.0982L205.206 76.3982L205.095 76.6148C204.842 77.1562 204.43 77.8003 203.861 78.547L203.469 79.0504L196.568 86.9281ZM198.325 82.4421L201.214 79.1184C201 78.5973 200.74 78.1713 200.433 77.8405C198.91 76.2584 197.481 75.741 196.145 76.2882C195.461 76.5685 194.971 76.9976 194.676 77.5753C194.403 78.1626 194.403 78.7901 194.677 79.4578C194.753 79.5977 194.805 79.7003 194.831 79.7654C195.06 80.1851 195.333 80.5488 195.65 80.8567C195.973 81.1808 196.399 81.5008 196.927 81.8166C197.177 81.9616 197.374 82.071 197.518 82.145C197.679 82.2123 197.948 82.3113 198.325 82.4421Z" fill="#515938"/>
</svg>
