<svg width="392" height="165" viewBox="0 0 392 165" fill="none" xmlns="http://www.w3.org/2000/svg">
<path d="M8.22871 138.861C8.35907 138.734 8.57994 136.744 8.74107 134.431C9.19895 124.729 14.0581 112.966 21.9904 102.147C27.7579 94.3835 27.8249 94.1915 30.7709 85.8741C34.1851 76.2773 35.641 73.34 39.5695 68.3156C43.1731 63.5439 49.3009 57.5859 52.5432 55.6383C53.5818 54.9456 54.6212 54.1886 54.8177 53.9342C55.5384 52.9798 66.9911 47.8683 70.3466 47.0153C78.4774 44.9435 81.8882 44.7342 101.364 45.2009C115.377 45.5265 121.937 45.4259 124.709 44.8862C134.704 42.8405 142.858 39.1615 146.194 35.0933C147.24 33.8863 148.218 32.8713 148.476 32.8749C149.954 32.8957 147.651 41.2222 145.223 44.7245C144.369 45.9984 143.645 47.1457 143.644 47.2742C143.641 47.4671 142.532 48.6089 141.165 49.8113C137.972 52.7885 132.405 55.4751 128.41 56.0619L125.188 56.531L127.748 57.4029C133.444 59.2833 145.482 58.2952 151.31 55.3551C154.418 53.8556 155.125 53.8655 155.102 55.4727C155.062 58.3655 150.614 63.7041 149.149 62.719C148.83 62.5217 148.57 62.7752 148.562 63.2895C148.547 64.3823 150.467 65.0523 153.809 65.0993C156.702 65.14 157.069 66.4954 154.844 69.229C153.928 70.3735 153.659 71.2056 154.04 71.5967C156.131 73.748 178.564 74.2563 185.728 72.3637C196.572 69.4298 200.973 67.3699 204.175 63.6856C208.226 59.113 207.91 54.1575 203.337 50.1067C200.923 48.0152 200.861 47.8858 202.281 47.5199C206.862 46.3627 211.595 48.1653 214.113 51.9943C215.623 54.3303 215.866 55.3625 215.814 59.0911C215.763 62.6911 215.883 63.3358 216.723 63.0261C224.996 59.9917 235.366 58.723 243.837 59.8708C249.934 60.6639 259.92 63.8263 264 66.327C265.531 67.2487 266.935 67.9757 267.192 67.9794C267.899 67.9893 266.99 54.9239 266.073 51.5674C264.111 44.7242 258.495 37.1865 253.45 34.6723C250.258 33.0842 242.551 32.4615 238.614 33.4992C234.999 34.4772 230.974 37.2497 229.263 39.9905C227.423 42.8581 227.609 43.3108 230.566 43.3524C232.688 43.3822 233.518 43.7797 234.72 45.2111C236.617 47.4883 236.604 48.3883 234.645 50.5469C233.337 52.0717 232.691 52.3198 229.735 52.2139C225.621 52.0918 223.78 50.4584 222.683 46.135C221.589 41.6187 223.711 37.019 229.251 31.7601L233.487 27.7045L231.633 26.9712C228.18 25.5724 221.111 25.2801 216.466 26.4364C204.337 29.288 195.489 36.6865 191.482 47.3038L189.878 51.5893L191.619 51.228C195.488 50.4465 198.965 54.6748 197.499 58.3192C196.898 59.9182 193.207 61.7953 190.892 61.7627C187.292 61.7121 183.428 57.607 182.088 52.3156C180.929 47.8627 183.404 36.4523 185.733 35.4563C186.056 35.3322 186.256 34.8207 186.263 34.3064C186.281 33.0206 192.993 26.6851 196.885 24.2965C210.699 15.8747 228.766 15.9358 244.59 24.5814C250.78 27.9476 252.308 29.0622 257.823 34.6694C265.557 42.494 270.061 51.4306 272.271 63.4855C273.885 72.1243 274.956 73.6825 285.624 83.2201C292.228 89.1641 292.038 88.9686 294.459 90.5458C295.543 91.204 296.943 92.2525 297.641 92.9053C299.482 94.5386 307.012 98.631 310.212 99.7048C314.243 101.112 319.372 102.148 322.265 102.189C323.68 102.209 324.833 102.482 324.83 102.739C324.814 103.832 319.742 107.876 316.376 109.501C313.721 110.814 311.592 111.298 307.474 111.497L302.134 111.744L305.808 115.653C316.643 127.058 327.974 135.19 337.127 138.148C347.752 141.641 359.03 139.806 368.253 133.185C374.749 128.518 377.726 122.58 377.188 115.114C376.652 107.455 373.192 102.069 367.371 99.9297C363.852 98.6586 362.502 98.6396 358.755 99.8729C353.588 101.536 348.734 108.348 352.656 108.403C355.098 108.438 356.247 109.097 357.183 111.103C358.373 113.37 357.57 115.545 354.973 117.373C349.129 121.406 341.379 114.739 341.504 105.803C341.592 99.5673 347.234 91.545 353.64 88.6773C357.328 87.0574 363.568 86.8236 367.407 88.1635C373.613 90.3727 379.515 95.921 382.575 102.394C384.074 105.501 384.248 106.854 384.352 113.157L384.508 120.36L381.596 126.299C376.897 135.814 368.758 143.029 359.005 146.172C348.67 149.498 334.417 147.948 322.348 142.055C318.899 140.399 318.07 139.873 312.977 136.265C310.749 134.691 308.963 133.637 308.96 133.894C308.947 134.794 314.323 141.171 317.246 143.655C326.396 151.371 338.102 155.715 350.444 155.953C358.029 156.124 358.09 156.318 351.033 159.819C345.983 162.256 339.857 163.52 333.3 163.428C322.307 163.273 313.357 159.547 305.941 151.984C303.595 149.572 301.698 147.359 301.702 147.038C301.707 146.716 301.33 146.068 300.821 145.675C299.678 144.694 296.182 137.187 295.703 134.672C295.165 131.771 294.323 132.21 293.759 135.738C293.121 139.973 291.392 144.064 288.569 148.203C283.842 155.145 275.064 157.465 267.206 153.883C263.821 152.292 260.515 149.609 260.532 148.388C260.536 148.066 262.469 147.836 264.848 147.806C267.291 147.84 269.996 147.556 270.965 147.184C273.938 146.133 278.373 141.63 280.031 138.053C281.423 135.114 281.634 133.831 281.734 126.696C281.797 117.63 280.954 113.568 277.45 106.703C275.135 102.105 271.038 96.2606 269.886 95.8586C269.438 95.7237 267.928 97.953 266.472 100.89C261.776 110.212 253.296 118.837 243.837 123.912C234.766 128.8 228.443 130.383 218.349 130.306C207.87 130.158 201.655 128.592 192.528 123.77C186.912 120.797 184.493 119.027 179.548 114.071C177.392 111.919 175.421 110.348 175.225 110.538C175.03 110.728 175.136 112.273 175.498 114.014C176.888 120.335 174.886 130.08 170.869 136.839C167.247 142.897 162.573 146.11 154.117 148.435C147.79 150.211 140.49 148.115 135.353 143.027C131.864 139.635 129.993 135.557 129.742 130.539C129.329 123.331 133.91 117.609 139.364 118.457C144.113 119.103 145.74 122.276 143.371 126.101C142.45 127.631 141.802 127.943 139.874 127.916C138.009 127.89 137.426 128.203 136.83 129.481C135.637 131.972 135.855 134.804 137.359 137.59C138.862 140.44 142.807 143.389 144.992 143.42C153.222 143.471 161.19 134.71 163.149 123.421C164.682 114.955 162.658 103.417 158.632 97.1236C157.374 95.1127 156.801 94.7188 155.638 95.0883C154.864 95.2703 153.958 95.7076 153.632 96.0246C152.656 96.8467 149.122 96.6684 147.85 95.6861C146.895 94.9654 146.962 94.7734 149.029 94.0952C152.196 92.9823 152.74 90.8681 150.531 87.8793C148.638 85.345 148.894 85.4129 138.159 85.1977C129.675 85.0141 129.61 85.0132 129.56 88.6133C129.533 90.5418 127.074 96.2299 126.303 96.1547C126.11 96.152 124.474 93.6214 122.716 90.5746C119.392 84.6124 118.185 83.5666 117.576 85.7442C116.967 87.9218 116.277 86.6904 116.259 83.4109C116.183 75.051 112.163 68.3074 104.951 64.4767C101.824 62.8253 94.381 61.6919 91.5415 62.4235C90.3799 62.7287 89.4101 63.1008 89.4092 63.1651C89.4074 63.2937 90.618 64.0823 92.0858 64.8745C99.2343 68.6401 102.962 77.8872 100.351 85.2449C98.276 91.0669 94.9576 93.8494 90.2005 93.7825C87.8219 93.7491 86.9907 93.4159 85.4704 91.787C82.1763 88.2686 83.4022 83.3991 87.5165 83.457C89.8308 83.4895 91.6716 85.1871 91.6426 87.2443C91.6155 89.1729 92.9683 88.999 95.1856 86.7797C97.3378 84.6238 98.11 80.0051 97.0044 76.3246C96.1424 73.6119 92.3367 69.8934 89.394 68.8232C85.812 67.4869 76.036 67.6709 71.3867 69.0844C65.2505 71.0557 59.6107 74.32 55.1135 78.6291C50.9413 82.6855 46.3527 88.9223 46.7855 90.1501C46.9078 90.6019 48.4479 90.8164 50.6355 90.7186C55.5239 90.5944 58.9791 91.8004 71.2371 98.0168C85.7297 105.358 93.2938 107.007 100.02 104.208C101.636 103.588 102.991 103.286 102.986 103.671C102.948 106.371 96.6866 112.649 91.2468 115.402C87.8795 117.09 87.2349 117.21 80.1634 117.11L72.6419 117.005L73.0512 119.904C73.9288 126.089 73.3965 131.933 71.7487 134.803C69.506 138.822 67.496 140.016 63.3817 139.958C60.3602 139.915 59.6567 139.648 58.3917 138.152C54.9139 133.988 56.0021 129.759 60.6352 129.503C62.1156 129.395 63.9763 129.678 64.7414 130.139C66.1457 130.866 66.1466 130.802 65.8016 127.904C64.6469 118.564 56.0107 110.855 45.7991 110.005L41.175 109.618L41.063 117.59C40.8379 133.597 45.7157 143.374 56.0089 147.57C60.1649 149.236 66.9801 149.267 69.8974 147.572C72.7495 145.941 72.8137 145.942 72.7912 147.549C72.7568 149.992 69.5453 154.319 67.0246 155.248C66.2487 155.558 65.5977 156.128 65.5923 156.514C65.576 157.671 71.9521 156.925 75.639 155.369C77.3855 154.622 78.9338 154.258 79.2507 154.584C79.5676 154.91 78.8406 156.314 77.6627 157.776C75.1773 160.764 70.9064 162.697 65.4974 163.264C62.3419 163.605 62.1472 163.731 63.5534 164.329C75.5714 169.321 81.4071 174.997 82.8352 183.183C83.7869 188.662 79.8331 195.486 74.731 197.086C72.3415 197.824 71.9567 197.754 70.814 196.71C69.3535 195.403 69.1833 193.793 70.3567 192.652C71.5301 191.511 73.2622 191.793 74.2709 193.222C76.0348 195.818 78.3916 192.83 76.7581 190.106C76.3805 189.522 74.2654 189.042 70.7984 188.672C67.011 188.233 64.3843 187.553 62.1505 186.364C58.5758 184.514 54.0069 180.206 53.3929 178.139C52.4087 174.975 51.9868 177.541 51.9155 187.185L51.8334 197.6L59.1738 201.433C66.8322 205.527 79.7547 210.209 86.3608 211.395C96.1097 213.14 105.061 212.173 114.504 208.255C116.313 207.573 115.931 211.875 113.885 215.64C112.169 218.831 108.064 222.631 106.329 222.607C105.814 222.6 105.103 222.911 104.646 223.355C104.19 223.798 101.936 224.088 99.3641 224.052C96.9203 224.082 94.8613 224.182 94.8586 224.375C94.8559 224.567 96.6913 226.651 98.8445 228.996C107.712 238.572 112.745 246.423 115.017 254.043C116.92 260.499 116.512 271.167 114.115 277.049C112.649 280.693 109.484 286.307 107.323 289.106C105.947 290.887 104.83 292.607 104.825 292.993C104.704 301.607 103.692 309.566 101.859 316.42C100.705 320.776 99.5559 324.747 99.2263 325.321C98.961 325.896 97.5043 328.897 95.9823 331.962C92.6713 338.796 89.1248 344.083 83.705 349.986C71.8849 362.937 53.1253 370.968 35.1886 370.78C28.8885 370.691 26.3243 370.141 27.3049 368.997C27.6978 368.488 28.3461 368.112 28.7318 368.117C29.8247 368.133 38.4389 363.689 41.8152 361.357C46.1658 358.332 53.1936 352.386 53.2036 351.679C53.2072 351.422 52.4448 350.768 51.4868 350.305C48.8683 349.046 48.1991 346.336 49.8379 344.109C51.6713 341.756 53.6117 340.947 59.2154 340.254C64.4325 339.62 67.5327 338.635 67.5463 337.671C67.5508 337.349 66.9197 336.505 66.1564 335.915C64.3138 334.346 64.4232 331.133 66.4459 329.039C67.2943 328.151 69.4393 326.51 71.2564 325.313C74.2407 323.426 76.7831 320.954 81.2278 315.809C83.647 312.949 88.5279 299.644 87.713 298.153C87.3979 297.699 79.8502 299.457 78.4232 300.338C78.0348 300.525 75.5513 303.384 72.8052 306.624C70.1224 309.93 66.8575 313.485 65.6207 314.561C55.6638 323.037 36.6243 323.541 23.5541 315.641C18.8358 312.81 13.8358 307.145 11.276 301.708C8.59215 295.948 8.24337 288.742 10.4353 283.757C11.8287 280.69 16.7904 275.359 18.2689 275.38C19.169 275.392 19.0956 276.034 18.0499 277.241C17.5274 277.813 16.7968 279.474 16.3912 280.883C11.8056 296.057 28.2197 308.505 45.91 303.353C52.8184 301.328 61.6943 296.566 61.7178 294.895C61.7241 294.445 60.9644 293.598 59.9449 292.941C52.7474 288.081 49.1246 280.507 47.3287 266.465C45.935 255.836 44.028 249.701 40.9893 246.315L39.7243 244.818L41.1386 244.838C43.1958 244.867 47.8408 248.34 50.4277 251.848C51.6899 253.538 53.1903 256.581 53.7399 258.646C54.2896 260.712 54.909 262.392 55.1018 262.395C55.2947 262.398 56.0172 261.315 56.7424 260.039C58.2608 257.231 62.1568 254.521 66.0293 253.482C68.5464 252.811 69.8955 252.894 74.7659 254.055C76.4319 254.465 76.4971 254.401 75.8714 253.171C75.4957 252.458 75.1896 251.361 75.1968 250.846C75.2393 247.825 65.6004 229.107 63.9933 229.085C63.8004 229.082 63.6556 230.237 63.7634 231.718C64.0441 234.615 62.5041 238.966 60.4099 241.572C57.662 244.942 51.3846 247.811 52.4503 245.19C52.6522 244.55 53.0569 243.205 53.2008 242.114C53.4081 241.088 53.8879 238.973 54.2953 237.436C55.0423 234.617 54.44 227.15 52.9848 220.892C52.1978 217.409 47.4948 208.92 46.3376 208.904C45.8234 208.896 44.8482 209.654 44.0641 210.543C40.4642 215.058 30.0518 219.348 24.4027 218.69C16.8278 217.812 9.40308 210.828 8.91758 204.198C8.54622 198.599 9.75397 195.015 10.5292 199.334C11.0091 201.784 13.7282 205.037 16.7289 206.558C19.9197 208.275 25.2554 208.35 29.0709 206.796C32.8864 205.242 38.1016 200.172 37.8706 198.304C37.6379 196.565 29.6083 191.436 24.2336 189.56C20.5222 188.287 20.5222 188.287 22.7106 188.124C25.9294 187.848 26.4546 187.084 24.6156 185.258C20.6207 181.279 15.4033 172.783 12.6715 165.865C11.7415 163.408 10.395 158.567 9.73577 155.15C8.53771 148.896 7.70628 139.432 8.22871 138.861ZM18.9204 151.292C20.9316 159.165 23.5412 165.632 27.1831 171.855C31.7657 179.764 33.0306 181.261 34.2004 180.377C35.8266 179.05 37.6201 174.96 39.0479 169.45C41.3619 160.352 40.728 155.135 35.9397 143.559C34.3234 139.614 32.5903 134.831 32.1031 132.895C31.5526 130.894 30.8825 128.249 30.514 127.022C30.2097 125.796 29.5477 122.572 29.0062 119.928C27.6261 112.9 27.8769 113.353 26 114.227C25.0946 114.6 24.3793 115.169 24.3748 115.49C24.3712 115.747 23.9818 115.999 23.5318 115.993C21.9889 115.971 19.892 118.771 18.4869 122.673C16.4779 128.368 16.7272 142.645 18.9204 151.292ZM41.6587 189.548C42.93 190.595 43.6471 189.898 44.2637 187.206C44.8114 184.834 44.556 184.702 42.3504 186.086C40.4689 187.281 40.2607 188.371 41.6587 189.548ZM59.3731 274.157C61.549 279.46 68.2357 284.055 71.9806 282.951C73.4012 282.521 75.9997 276.063 76.3138 272.016C76.5419 269.512 76.4785 269.447 74.74 269.615C71.9069 269.897 70.0019 268.198 68.898 264.389C67.3052 258.773 65.2661 257.458 61.9514 259.984C58.3768 262.698 57.1954 268.983 59.3731 274.157ZM75.4912 220.759C81.767 227.148 87.0694 234.167 90.4541 240.387C94.1503 247.319 97.0243 253.275 97.0143 253.982C97.0089 254.368 97.5667 255.855 98.1879 257.407C99.6212 260.642 101.587 267.164 102.549 271.935C103.394 275.869 104.228 276.01 106.079 272.371C107.136 270.392 107.417 268.66 107.486 263.774C107.554 254.388 105.1 245.994 100.248 238.918C94.7022 230.931 88.3504 225.376 76.3024 217.941C74.008 216.494 72.0332 215.18 71.9726 214.922C71.7235 214.34 69.9253 214.186 69.9181 214.701C69.9154 214.893 72.4489 217.63 75.4912 220.759ZM197.103 86.5408C210.409 86.7922 216.79 85.6602 224.305 81.715C227.543 80.0245 228.265 79.0059 226.272 78.9778C224.086 78.9471 211.01 80.6279 203.92 81.8785C192.059 83.9622 189.933 84.2538 185.561 84.2567L181.381 84.2622L183.618 85.2581C185.343 86.054 188.361 86.3536 197.103 86.5408ZM213.305 109.466C217.984 110.496 226.412 110.165 231.513 108.693C236.549 107.221 242.825 104.416 245.231 102.521C249.391 99.2998 252.782 95.9396 255.598 92.3142C259.133 87.7987 259.141 87.2201 255.052 85.3623C246.235 81.3804 238.425 78.9558 237.255 79.8395C236.864 80.2198 236.265 81.626 236.052 83.1019C235.148 87.9116 228.386 93.2819 220.902 95.0414C217.032 95.9514 216.702 96.5255 219.522 97.1438C222.471 97.764 224.595 97.6652 227.308 96.7389C228.665 96.3079 229.825 96.067 230.016 96.2626C230.207 96.3938 229.605 97.9929 228.681 99.7159C226.105 104.566 220.08 107.825 213.651 107.735C210.308 107.688 210.101 108.714 213.305 109.466Z" fill="#515938"/>
</svg>
