<svg width="392" height="181" viewBox="0 0 392 181" fill="none" xmlns="http://www.w3.org/2000/svg">
<path d="M382.911 41.2783C382.781 41.405 382.56 43.3952 382.399 45.7077C381.941 55.4104 377.081 67.173 369.149 77.9923C363.382 85.7557 363.315 85.9476 360.369 94.2651C356.955 103.862 355.499 106.799 351.57 111.824C347.967 116.595 341.839 122.553 338.596 124.501C337.558 125.194 336.518 125.951 336.322 126.205C335.601 127.159 324.149 132.271 320.793 133.124C312.662 135.196 309.251 135.405 289.775 134.938C275.763 134.613 269.203 134.713 266.431 135.253C256.435 137.299 248.282 140.978 244.946 145.046C243.9 146.253 242.921 147.268 242.664 147.264C241.185 147.243 243.489 138.917 245.917 135.415C246.771 134.141 247.494 132.994 247.496 132.865C247.499 132.672 248.608 131.53 249.975 130.328C253.168 127.351 258.735 124.664 262.73 124.077L265.951 123.608L263.392 122.736C257.695 120.856 245.658 121.844 239.829 124.784C236.722 126.284 236.015 126.274 236.037 124.666C236.078 121.774 240.526 116.435 241.991 117.42C242.309 117.617 242.57 117.364 242.577 116.85C242.593 115.757 240.673 115.087 237.33 115.04C234.437 114.999 234.071 113.644 236.295 110.91C237.211 109.766 237.48 108.934 237.1 108.542C235.008 106.391 212.575 105.883 205.412 107.775C194.568 110.709 190.167 112.769 186.964 116.454C182.914 121.026 183.23 125.982 187.802 130.032C190.216 132.124 190.279 132.253 188.859 132.619C184.277 133.777 179.545 131.974 177.027 128.145C175.516 125.809 175.274 124.777 175.326 121.048C175.377 117.448 175.257 116.803 174.417 117.113C166.144 120.147 155.774 121.416 147.303 120.268C141.205 119.475 131.219 116.313 127.139 113.812C125.609 112.89 124.205 112.163 123.948 112.16C123.24 112.15 124.15 125.215 125.067 128.572C127.028 135.415 132.645 142.953 137.689 145.467C140.882 147.055 148.589 147.678 152.526 146.64C156.14 145.662 160.166 142.889 161.876 140.149C163.717 137.281 163.53 136.828 160.573 136.787C158.452 136.757 157.621 136.359 156.42 134.928C154.523 132.651 154.536 131.751 156.495 129.592C157.802 128.067 158.449 127.819 161.405 127.925C165.518 128.047 167.36 129.681 168.457 134.004C169.551 138.52 167.428 143.12 161.889 148.379L157.653 152.435L159.507 153.168C162.959 154.567 170.028 154.859 174.674 153.703C186.802 150.851 195.651 143.453 199.658 132.835L201.262 128.55L199.52 128.911C195.651 129.693 192.174 125.464 193.64 121.82C194.241 120.221 197.933 118.344 200.247 118.376C203.847 118.427 207.712 122.532 209.052 127.824C210.211 132.276 207.736 143.687 205.407 144.683C205.084 144.807 204.884 145.319 204.876 145.833C204.858 147.119 198.147 153.454 194.255 155.843C180.441 164.265 162.374 164.203 146.549 155.558C140.36 152.192 138.832 151.077 133.317 145.47C125.583 137.645 121.079 128.709 118.869 116.654C117.254 108.015 116.183 106.457 105.515 96.919C98.9117 90.975 99.1018 91.1706 96.6806 89.5934C95.5968 88.9351 94.197 87.8867 93.4989 87.2339C91.6572 85.6005 84.1274 81.5081 80.9276 80.4344C76.8966 79.0274 71.7672 77.9908 68.8743 77.9501C67.46 77.9303 66.3065 77.6568 66.3101 77.3997C66.3255 76.3068 71.3977 72.263 74.764 70.6386C77.4187 69.3256 79.5474 68.8412 83.6653 68.6419L89.0056 68.3954L85.3312 64.4859C74.4965 53.0812 63.1656 44.9489 54.0125 41.9911C43.388 38.4981 32.1099 40.3328 22.8864 46.9545C16.3909 51.6213 13.4139 57.5593 13.952 65.0255C14.4873 72.6846 17.948 78.07 23.7691 80.2094C27.2877 81.4806 28.6377 81.4996 32.3844 80.2663C37.5516 78.6029 42.4055 71.7911 38.4841 71.736C36.0412 71.7016 34.8931 71.0425 33.9568 69.0361C32.767 66.7689 33.5692 64.594 36.1668 62.7659C42.0104 58.7329 49.7611 65.4004 49.6355 74.3361C49.5478 80.5719 43.9054 88.5942 37.4995 91.4619C33.8116 93.0818 27.5714 93.3156 23.7323 91.9756C17.5264 89.7665 11.6246 84.2181 8.56493 77.7452C7.06545 74.6378 6.89157 73.2851 6.78729 66.9823L6.63137 59.7787L9.54401 53.8398C14.243 44.3254 22.3818 37.1097 32.1351 33.9676C42.4697 30.6408 56.7222 32.1914 68.7918 38.0837C72.2407 39.7397 73.0692 40.2657 78.1624 43.8738C80.3907 45.4482 82.1762 46.5021 82.1798 46.245C82.1925 45.345 76.8168 38.9681 73.8939 36.4837C64.7434 28.7678 53.0378 24.4238 40.6958 24.186C33.1109 24.015 33.0493 23.8213 40.1071 20.3198C45.1567 17.8831 51.2828 16.6189 57.84 16.7111C68.833 16.8657 77.7824 20.5922 85.199 28.1552C87.5442 30.5672 89.442 32.78 89.4375 33.1015C89.433 33.4229 89.8097 34.0712 90.3185 34.4641C91.4621 35.4447 94.9573 42.9525 95.4363 45.4669C95.9743 48.3679 96.8163 47.9296 97.3803 44.4011C98.0185 40.1664 99.7478 36.0756 102.571 31.9358C107.298 24.9937 116.075 22.6738 123.934 26.2564C127.319 27.8472 130.625 30.5299 130.608 31.7513C130.603 32.0728 128.671 32.3028 126.292 32.3336C123.849 32.2993 121.144 32.5827 120.174 32.9549C117.202 34.0062 112.766 38.5091 111.108 42.0865C109.717 45.0247 109.506 46.3077 109.406 53.4434C109.342 62.5087 110.186 66.5714 113.69 73.4363C116.004 78.0341 120.101 83.8786 121.253 84.2805C121.701 84.4154 123.212 82.1862 124.667 79.2489C129.364 69.9273 137.844 61.3019 147.303 56.2267C156.373 51.3389 162.697 49.756 172.791 49.8336C183.269 49.981 189.484 51.5472 198.611 56.3694C204.228 59.3418 206.646 61.1118 211.592 66.0681C213.748 68.2202 215.719 69.7911 215.915 69.601C216.11 69.4108 216.003 67.8662 215.642 66.125C214.252 59.8042 216.254 50.0589 220.271 43.2997C223.892 37.2422 228.567 34.0287 237.023 31.7043C243.349 29.9285 250.65 32.0244 255.786 37.112C259.275 40.5045 261.147 44.5817 261.398 49.6005C261.811 56.8078 257.229 62.5303 251.776 61.682C247.027 61.0366 245.4 57.863 247.768 54.0384C248.69 52.5082 249.337 52.1958 251.266 52.2229C253.13 52.2491 253.713 51.9358 254.31 50.6582C255.502 48.1674 255.285 45.3352 253.781 42.5492C252.278 39.6989 248.333 36.75 246.147 36.7192C237.918 36.6678 229.95 45.4291 227.991 56.7181C226.457 65.184 228.481 76.7219 232.508 83.0155C233.766 85.0265 234.339 85.4203 235.501 85.0509C236.275 84.8689 237.182 84.4315 237.508 84.1146C238.484 83.2924 242.018 83.4707 243.29 84.4531C244.244 85.1738 244.177 85.3657 242.11 86.044C238.944 87.1568 238.4 89.271 240.608 92.2598C242.502 94.7941 242.245 94.7262 252.98 94.9414C261.465 95.125 261.529 95.1259 261.58 91.5259C261.607 89.5973 264.066 83.9093 264.837 83.9844C265.029 83.9871 266.666 86.5178 268.423 89.5645C271.747 95.5268 272.954 96.5725 273.563 94.3949C274.173 92.2173 274.863 93.4487 274.881 96.7282C274.956 105.088 278.977 111.832 286.189 115.662C289.316 117.314 296.759 118.447 299.598 117.716C300.76 117.41 301.73 117.038 301.73 116.974C301.732 116.845 300.522 116.057 299.054 115.265C291.905 111.499 288.177 102.252 290.789 94.8943C292.864 89.0723 296.182 86.2898 300.939 86.3567C303.318 86.3901 304.149 86.7233 305.669 88.3521C308.963 91.8706 307.737 96.7401 303.623 96.6822C301.309 96.6497 299.468 94.952 299.497 92.8949C299.524 90.9663 298.171 91.1402 295.954 93.3594C293.802 95.5153 293.03 100.134 294.135 103.815C294.997 106.527 298.803 110.246 301.746 111.316C305.328 112.652 315.104 112.468 319.753 111.055C325.889 109.083 331.529 105.819 336.026 101.51C340.198 97.4536 344.787 91.2168 344.354 89.9891C344.232 89.5373 342.692 89.3227 340.504 89.4206C335.616 89.5447 332.161 88.3388 319.903 82.1224C305.41 74.7814 297.846 73.1319 291.119 75.9308C289.503 76.5511 288.149 76.8535 288.154 76.4678C288.192 73.7678 294.453 67.4902 299.893 64.7376C303.26 63.0488 303.905 62.9293 310.976 63.0287L318.498 63.1345L318.088 60.2353C317.211 54.0502 317.743 48.2065 319.391 45.3362C321.634 41.3169 323.644 40.1235 327.758 40.1814C330.779 40.2238 331.483 40.4909 332.748 41.9876C336.226 46.1516 335.138 50.38 330.504 50.6364C329.024 50.7442 327.163 50.4608 326.398 50C324.994 49.2729 324.993 49.3372 325.338 52.2355C326.493 61.5751 335.129 69.2838 345.341 70.1346L349.965 70.5211L350.077 62.5496C350.302 46.5424 345.424 36.7647 335.131 32.5692C330.975 30.9033 324.16 30.8718 321.242 32.5668C318.39 34.1985 318.326 34.1976 318.348 32.5904C318.383 30.1475 321.594 25.8204 324.115 24.8913C324.891 24.5808 325.542 24.0112 325.547 23.6255C325.564 22.4684 319.188 23.2146 315.501 24.7702C313.754 25.5173 312.206 25.8813 311.889 25.5553C311.572 25.2294 312.299 23.825 313.477 22.3627C315.962 19.3756 320.233 17.4424 325.642 16.8755C328.798 16.534 328.992 16.4082 327.586 15.8097C315.568 10.8183 309.733 5.14229 308.304 -3.04373C307.353 -8.52251 311.307 -15.3469 316.409 -16.9469C318.798 -17.6849 319.183 -17.6152 320.326 -16.5704C321.786 -15.2639 321.956 -13.654 320.783 -12.5131C319.61 -11.3722 317.877 -11.6538 316.869 -13.0825C315.105 -15.6793 312.748 -12.6904 314.382 -9.96687C314.759 -9.38286 316.874 -8.90304 320.341 -8.53281C324.129 -8.09376 326.755 -7.41384 328.989 -6.22506C332.564 -4.37444 337.133 -0.0664711 337.747 1.99972C338.731 5.1642 339.153 2.59818 339.224 -7.04565L339.306 -17.4609L331.966 -21.2934C324.307 -25.3876 311.385 -30.0702 304.779 -31.2562C295.03 -33.0007 286.079 -32.0335 276.636 -28.1154C274.826 -27.4336 275.208 -31.7362 277.254 -35.5011C278.971 -38.6919 283.075 -42.4921 284.811 -42.4677C285.325 -42.4605 286.037 -42.772 286.493 -43.2156C286.95 -43.6593 289.204 -43.9491 291.776 -43.913C294.219 -43.9429 296.278 -44.0426 296.281 -44.2354C296.284 -44.4283 294.448 -46.5116 292.295 -48.8567C283.428 -58.4333 278.394 -66.2842 276.123 -73.9034C274.22 -80.36 274.627 -91.0279 277.025 -96.9097C278.49 -100.554 281.656 -106.168 283.817 -108.967C285.192 -110.748 286.31 -112.468 286.315 -112.854C286.436 -121.468 287.448 -129.427 289.281 -136.281C290.435 -140.637 291.584 -144.608 291.913 -145.182C292.179 -145.757 293.635 -148.758 295.157 -151.823C298.468 -158.657 302.015 -163.944 307.435 -169.847C319.255 -182.798 338.014 -190.829 355.951 -190.641C362.251 -190.552 364.815 -190.002 363.835 -188.858C363.442 -188.349 362.794 -187.973 362.408 -187.978C361.315 -187.993 352.701 -183.549 349.324 -181.218C344.974 -178.193 337.946 -172.247 337.936 -171.54C337.932 -171.283 338.695 -170.629 339.653 -170.166C342.271 -168.907 342.941 -166.197 341.302 -163.97C339.468 -161.617 337.528 -160.808 331.924 -160.115C326.707 -159.481 323.607 -158.496 323.593 -157.532C323.589 -157.21 324.22 -156.366 324.983 -155.776C326.826 -154.207 326.716 -150.994 324.694 -148.9C323.845 -148.012 321.7 -146.37 319.883 -145.174C316.899 -143.287 314.357 -140.815 309.912 -135.67C307.493 -132.81 302.612 -119.505 303.427 -118.014C303.742 -117.56 311.289 -119.318 312.716 -120.198C313.105 -120.386 315.588 -123.244 318.334 -126.485C321.017 -129.791 324.282 -133.346 325.519 -134.421C335.476 -142.897 354.515 -143.401 367.586 -135.502C372.304 -132.671 377.304 -127.006 379.864 -121.569C382.548 -115.809 382.896 -108.602 380.704 -103.618C379.311 -100.551 374.349 -95.2199 372.871 -95.2407C371.971 -95.2533 372.044 -95.8953 373.09 -97.1023C373.612 -97.6736 374.343 -99.3351 374.748 -100.744C379.334 -115.918 362.92 -128.366 345.23 -123.213C338.321 -121.189 329.445 -116.427 329.422 -114.755C329.416 -114.305 330.175 -113.459 331.195 -112.802C338.392 -107.942 342.015 -100.368 343.811 -86.3259C345.205 -75.697 347.112 -69.5618 350.15 -66.1755L351.415 -64.6789L350.001 -64.6988C347.944 -64.7277 343.299 -68.2008 340.712 -71.7093C339.45 -73.3989 337.949 -76.442 337.4 -78.5073C336.85 -80.5726 336.231 -82.253 336.038 -82.2558C335.845 -82.2585 335.122 -81.1756 334.397 -79.8998C332.879 -77.092 328.983 -74.3819 325.11 -73.3433C322.593 -72.6714 321.244 -72.7546 316.374 -73.9162C314.708 -74.3254 314.643 -74.262 315.268 -73.0315C315.644 -72.319 315.95 -71.2216 315.943 -70.7073C315.9 -67.6858 325.539 -48.968 327.146 -48.9454C327.339 -48.9427 327.484 -50.098 327.376 -51.5784C327.096 -54.4758 328.636 -58.8265 330.73 -61.4333C333.478 -64.8025 339.755 -67.672 338.689 -65.0507C338.487 -64.4106 338.083 -63.066 337.939 -61.9749C337.732 -60.949 337.252 -58.8339 336.844 -57.2965C336.097 -54.4778 336.7 -47.0107 338.155 -40.7533C338.942 -37.2701 343.645 -28.7808 344.802 -28.7645C345.316 -28.7573 346.291 -29.5152 347.076 -30.4043C350.675 -34.9189 361.088 -39.2092 366.737 -38.5511C374.312 -37.673 381.737 -30.6886 382.222 -24.059C382.593 -18.4598 381.386 -14.876 380.61 -19.195C380.131 -21.6451 377.411 -24.8982 374.411 -26.4193C371.22 -28.1359 365.884 -28.2109 362.069 -26.6571C358.253 -25.1033 353.038 -20.0327 353.269 -18.1648C353.502 -16.4254 361.531 -11.2972 366.906 -9.42131C370.617 -8.14746 370.617 -8.14746 368.429 -7.98533C365.21 -7.70908 364.685 -6.94489 366.524 -5.11866C370.519 -1.14027 375.736 7.35623 378.468 14.2746C379.398 16.731 380.745 21.5724 381.404 24.9895C382.602 31.2433 383.433 40.7069 382.911 41.2783ZM372.219 28.8469C370.208 20.9741 367.598 14.5076 363.957 8.2837C359.374 0.374803 358.109 -1.12184 356.939 -0.238113C355.313 1.0893 353.52 5.17921 352.092 10.6888C349.778 19.7867 350.412 25.0038 355.2 36.5806C356.816 40.5256 358.549 45.3081 359.037 47.2439C359.587 49.2449 360.257 51.8906 360.626 53.1174C360.93 54.3434 361.592 57.5676 362.133 60.2115C363.514 67.2395 363.263 66.7859 365.14 65.9121C366.045 65.539 366.76 64.9704 366.765 64.6489C366.768 64.3918 367.158 64.1401 367.608 64.1464C369.151 64.1681 371.248 61.3684 372.653 57.4659C374.662 51.7716 374.412 37.4938 372.219 28.8469ZM349.481 -9.4091C348.21 -10.4558 347.493 -9.75854 346.876 -7.06667C346.328 -4.69531 346.584 -4.56312 348.789 -5.94669C350.671 -7.14192 350.879 -8.23207 349.481 -9.4091ZM331.767 -94.0182C329.591 -99.3213 322.904 -103.916 319.159 -102.812C317.738 -102.381 315.14 -95.9237 314.826 -91.8773C314.598 -89.3729 314.661 -89.3077 316.4 -89.4761C319.233 -89.7578 321.138 -88.0592 322.242 -84.2501C323.834 -78.6337 325.874 -77.3191 329.188 -79.8444C332.763 -82.559 333.944 -88.8437 331.767 -94.0182ZM315.648 -40.6196C309.373 -47.0091 304.07 -54.0279 300.686 -60.2482C296.989 -67.1801 294.115 -73.136 294.125 -73.8432C294.131 -74.2289 293.573 -75.7156 292.952 -77.2675C291.518 -80.5026 289.553 -87.0244 288.591 -91.7961C287.746 -95.7302 286.912 -95.8705 285.061 -92.2315C284.004 -90.2531 283.722 -88.521 283.654 -83.6352C283.586 -74.2485 286.04 -65.8552 290.891 -58.7784C296.437 -50.7917 302.789 -45.237 314.837 -37.8018C317.132 -36.355 319.106 -35.0413 319.167 -34.7832C319.416 -34.201 321.214 -34.0472 321.222 -34.5614C321.224 -34.7543 318.691 -37.4905 315.648 -40.6196ZM194.037 93.5984C180.731 93.347 174.349 94.4789 166.835 98.4241C163.596 100.115 162.875 101.133 164.868 101.161C167.053 101.192 180.13 99.5112 187.22 98.2606C199.08 96.1769 201.206 95.8853 205.579 95.8825L209.758 95.8769L207.522 94.881C205.797 94.0852 202.779 93.7856 194.037 93.5984ZM177.835 70.6731C173.155 69.6428 164.727 69.9744 159.627 71.4459C154.591 72.9183 148.315 75.7235 145.909 77.6186C141.749 80.8394 138.358 84.1995 135.542 87.825C132.006 92.3405 131.998 92.919 136.087 94.7769C144.904 98.7588 152.715 101.183 153.885 100.3C154.276 99.9193 154.874 98.5132 155.088 97.0373C155.991 92.2276 162.754 86.8573 170.237 85.0978C174.108 84.1877 174.438 83.6137 171.617 82.9953C168.668 82.3752 166.545 82.4739 163.831 83.4003C162.475 83.8313 161.314 84.0722 161.124 83.8766C160.933 83.7453 161.534 82.1463 162.459 80.4232C165.034 75.5727 171.06 72.3139 177.489 72.4043C180.832 72.4513 181.039 71.4254 177.835 70.6731Z" fill="#515938"/>
</svg>
