<svg width="392" height="165" viewBox="0 0 392 165" fill="none" xmlns="http://www.w3.org/2000/svg">
<path d="M382.911 138.861C382.781 138.734 382.56 136.744 382.399 134.431C381.941 124.729 377.081 112.966 369.149 102.147C363.382 94.3835 363.315 94.1915 360.369 85.8741C356.955 76.2773 355.499 73.34 351.57 68.3156C347.967 63.5439 341.839 57.5859 338.596 55.6383C337.558 54.9456 336.518 54.1886 336.322 53.9342C335.601 52.9798 324.149 47.8683 320.793 47.0153C312.662 44.9435 309.251 44.7342 289.775 45.2009C275.763 45.5265 269.203 45.4259 266.431 44.8862C256.435 42.8405 248.282 39.1615 244.946 35.0933C243.9 33.8863 242.921 32.8713 242.664 32.8749C241.185 32.8957 243.489 41.2222 245.917 44.7245C246.771 45.9984 247.494 47.1457 247.496 47.2742C247.499 47.4671 248.608 48.6089 249.975 49.8113C253.168 52.7885 258.735 55.4751 262.73 56.0619L265.951 56.531L263.392 57.4029C257.695 59.2833 245.658 58.2952 239.829 55.3551C236.722 53.8556 236.015 53.8655 236.037 55.4727C236.078 58.3655 240.526 63.7041 241.991 62.719C242.309 62.5217 242.57 62.7752 242.577 63.2895C242.593 64.3823 240.673 65.0523 237.33 65.0993C234.437 65.14 234.071 66.4954 236.295 69.229C237.211 70.3735 237.48 71.2056 237.1 71.5967C235.008 73.748 212.575 74.2563 205.412 72.3637C194.568 69.4298 190.167 67.3699 186.964 63.6856C182.914 59.113 183.23 54.1575 187.802 50.1067C190.216 48.0152 190.279 47.8858 188.859 47.5199C184.277 46.3627 179.545 48.1653 177.027 51.9943C175.516 54.3303 175.274 55.3625 175.326 59.0911C175.377 62.6911 175.257 63.3358 174.417 63.0261C166.144 59.9917 155.774 58.723 147.303 59.8708C141.205 60.6639 131.219 63.8263 127.139 66.327C125.609 67.2487 124.205 67.9757 123.948 67.9794C123.24 67.9893 124.15 54.9239 125.067 51.5674C127.028 44.7242 132.645 37.1865 137.689 34.6723C140.882 33.0842 148.589 32.4615 152.526 33.4992C156.14 34.4772 160.166 37.2497 161.876 39.9905C163.717 42.8581 163.53 43.3108 160.573 43.3524C158.452 43.3822 157.621 43.7797 156.42 45.2111C154.523 47.4883 154.536 48.3883 156.495 50.5469C157.802 52.0717 158.449 52.3198 161.405 52.2139C165.518 52.0918 167.36 50.4584 168.457 46.135C169.551 41.6187 167.428 37.019 161.889 31.7601L157.653 27.7045L159.507 26.9712C162.959 25.5724 170.028 25.2801 174.674 26.4364C186.802 29.288 195.651 36.6865 199.658 47.3038L201.262 51.5893L199.52 51.228C195.651 50.4465 192.174 54.6748 193.64 58.3192C194.241 59.9182 197.933 61.7953 200.247 61.7627C203.847 61.7121 207.712 57.607 209.052 52.3156C210.211 47.8627 207.736 36.4523 205.407 35.4563C205.084 35.3322 204.884 34.8207 204.876 34.3064C204.858 33.0206 198.147 26.6851 194.255 24.2965C180.441 15.8747 162.374 15.9358 146.549 24.5814C140.36 27.9476 138.832 29.0622 133.317 34.6694C125.583 42.494 121.079 51.4306 118.869 63.4855C117.254 72.1243 116.183 73.6825 105.515 83.2201C98.9117 89.1641 99.1018 88.9686 96.6806 90.5458C95.5968 91.204 94.197 92.2525 93.4989 92.9053C91.6572 94.5386 84.1274 98.631 80.9276 99.7048C76.8966 101.112 71.7672 102.148 68.8743 102.189C67.46 102.209 66.3065 102.482 66.3101 102.739C66.3255 103.832 71.3977 107.876 74.764 109.501C77.4187 110.814 79.5474 111.298 83.6653 111.497L89.0056 111.744L85.3312 115.653C74.4965 127.058 63.1656 135.19 54.0125 138.148C43.388 141.641 32.1099 139.806 22.8864 133.185C16.3909 128.518 13.4139 122.58 13.952 115.114C14.4873 107.455 17.948 102.069 23.7691 99.9297C27.2877 98.6586 28.6377 98.6396 32.3844 99.8729C37.5516 101.536 42.4055 108.348 38.4841 108.403C36.0412 108.438 34.8931 109.097 33.9568 111.103C32.767 113.37 33.5692 115.545 36.1668 117.373C42.0104 121.406 49.7611 114.739 49.6355 105.803C49.5478 99.5673 43.9054 91.545 37.4995 88.6773C33.8116 87.0574 27.5714 86.8236 23.7323 88.1635C17.5264 90.3727 11.6246 95.921 8.56493 102.394C7.06545 105.501 6.89157 106.854 6.78729 113.157L6.63137 120.36L9.54401 126.299C14.243 135.814 22.3818 143.029 32.1351 146.172C42.4697 149.498 56.7222 147.948 68.7918 142.055C72.2407 140.399 73.0692 139.873 78.1624 136.265C80.3907 134.691 82.1762 133.637 82.1798 133.894C82.1925 134.794 76.8168 141.171 73.8939 143.655C64.7434 151.371 53.0378 155.715 40.6958 155.953C33.1109 156.124 33.0493 156.318 40.1071 159.819C45.1567 162.256 51.2828 163.52 57.84 163.428C68.833 163.273 77.7824 159.547 85.199 151.984C87.5442 149.572 89.442 147.359 89.4375 147.038C89.433 146.716 89.8097 146.068 90.3185 145.675C91.4621 144.694 94.9573 137.187 95.4363 134.672C95.9743 131.771 96.8163 132.21 97.3803 135.738C98.0185 139.973 99.7478 144.064 102.571 148.203C107.298 155.145 116.075 157.465 123.934 153.883C127.319 152.292 130.625 149.609 130.608 148.388C130.603 148.066 128.671 147.836 126.292 147.806C123.849 147.84 121.144 147.556 120.174 147.184C117.202 146.133 112.766 141.63 111.108 138.053C109.717 135.114 109.506 133.831 109.406 126.696C109.342 117.63 110.186 113.568 113.69 106.703C116.004 102.105 120.101 96.2606 121.253 95.8586C121.701 95.7237 123.212 97.953 124.667 100.89C129.364 110.212 137.844 118.837 147.303 123.912C156.373 128.8 162.697 130.383 172.791 130.306C183.269 130.158 189.484 128.592 198.611 123.77C204.228 120.797 206.646 119.027 211.592 114.071C213.748 111.919 215.719 110.348 215.915 110.538C216.11 110.728 216.003 112.273 215.642 114.014C214.252 120.335 216.254 130.08 220.271 136.839C223.892 142.897 228.567 146.11 237.023 148.435C243.349 150.211 250.65 148.115 255.786 143.027C259.275 139.635 261.147 135.557 261.398 130.539C261.811 123.331 257.229 117.609 251.776 118.457C247.027 119.103 245.4 122.276 247.768 126.101C248.69 127.631 249.337 127.943 251.266 127.916C253.13 127.89 253.713 128.203 254.31 129.481C255.502 131.972 255.285 134.804 253.781 137.59C252.278 140.44 248.333 143.389 246.147 143.42C237.918 143.471 229.95 134.71 227.991 123.421C226.457 114.955 228.481 103.417 232.508 97.1236C233.766 95.1127 234.339 94.7188 235.501 95.0883C236.275 95.2703 237.182 95.7076 237.508 96.0246C238.484 96.8467 242.018 96.6684 243.29 95.6861C244.244 94.9654 244.177 94.7734 242.11 94.0952C238.944 92.9823 238.4 90.8681 240.608 87.8793C242.502 85.345 242.245 85.4129 252.98 85.1977C261.465 85.0141 261.529 85.0132 261.58 88.6133C261.607 90.5418 264.066 96.2299 264.837 96.1547C265.029 96.152 266.666 93.6214 268.423 90.5746C271.747 84.6124 272.954 83.5666 273.563 85.7442C274.173 87.9218 274.863 86.6904 274.881 83.4109C274.956 75.051 278.977 68.3074 286.189 64.4767C289.316 62.8253 296.759 61.6919 299.598 62.4235C300.76 62.7287 301.73 63.1008 301.73 63.1651C301.732 63.2937 300.522 64.0823 299.054 64.8745C291.905 68.6401 288.177 77.8872 290.789 85.2449C292.864 91.0669 296.182 93.8494 300.939 93.7825C303.318 93.7491 304.149 93.4159 305.669 91.787C308.963 88.2686 307.737 83.3991 303.623 83.457C301.309 83.4895 299.468 85.1871 299.497 87.2443C299.524 89.1729 298.171 88.999 295.954 86.7797C293.802 84.6238 293.03 80.0051 294.135 76.3246C294.997 73.6119 298.803 69.8934 301.746 68.8232C305.328 67.4869 315.104 67.6709 319.753 69.0844C325.889 71.0557 331.529 74.32 336.026 78.6291C340.198 82.6855 344.787 88.9223 344.354 90.1501C344.232 90.6019 342.692 90.8164 340.504 90.7186C335.616 90.5944 332.161 91.8004 319.903 98.0168C305.41 105.358 297.846 107.007 291.119 104.208C289.503 103.588 288.149 103.286 288.154 103.671C288.192 106.371 294.453 112.649 299.893 115.402C303.26 117.09 303.905 117.21 310.976 117.11L318.498 117.005L318.088 119.904C317.211 126.089 317.743 131.933 319.391 134.803C321.634 138.822 323.644 140.016 327.758 139.958C330.779 139.915 331.483 139.648 332.748 138.152C336.226 133.988 335.138 129.759 330.504 129.503C329.024 129.395 327.163 129.678 326.398 130.139C324.994 130.866 324.993 130.802 325.338 127.904C326.493 118.564 335.129 110.855 345.341 110.005L349.965 109.618L350.077 117.59C350.302 133.597 345.424 143.374 335.131 147.57C330.975 149.236 324.16 149.267 321.242 147.572C318.39 145.941 318.326 145.942 318.348 147.549C318.383 149.992 321.594 154.319 324.115 155.248C324.891 155.558 325.542 156.128 325.547 156.514C325.564 157.671 319.188 156.925 315.501 155.369C313.754 154.622 312.206 154.258 311.889 154.584C311.572 154.91 312.299 156.314 313.477 157.776C315.962 160.764 320.233 162.697 325.642 163.264C328.798 163.605 328.992 163.731 327.586 164.329C315.568 169.321 309.733 174.997 308.304 183.183C307.353 188.662 311.307 195.486 316.409 197.086C318.798 197.824 319.183 197.754 320.326 196.71C321.786 195.403 321.956 193.793 320.783 192.652C319.61 191.511 317.877 191.793 316.869 193.222C315.105 195.818 312.748 192.83 314.382 190.106C314.759 189.522 316.874 189.042 320.341 188.672C324.129 188.233 326.755 187.553 328.989 186.364C332.564 184.514 337.133 180.206 337.747 178.139C338.731 174.975 339.153 177.541 339.224 187.185L339.306 197.6L331.966 201.433C324.307 205.527 311.385 210.209 304.779 211.395C295.03 213.14 286.079 212.173 276.636 208.255C274.826 207.573 275.208 211.875 277.254 215.64C278.971 218.831 283.075 222.631 284.811 222.607C285.325 222.6 286.037 222.911 286.493 223.355C286.95 223.798 289.204 224.088 291.776 224.052C294.219 224.082 296.278 224.182 296.281 224.375C296.284 224.567 294.448 226.651 292.295 228.996C283.428 238.572 278.394 246.423 276.123 254.043C274.22 260.499 274.627 271.167 277.025 277.049C278.49 280.693 281.656 286.307 283.817 289.106C285.192 290.887 286.31 292.607 286.315 292.993C286.436 301.607 287.448 309.566 289.281 316.42C290.435 320.776 291.584 324.747 291.913 325.321C292.179 325.896 293.635 328.897 295.157 331.962C298.468 338.796 302.015 344.083 307.435 349.986C319.255 362.937 338.014 370.968 355.951 370.78C362.251 370.691 364.815 370.141 363.835 368.997C363.442 368.488 362.794 368.112 362.408 368.117C361.315 368.133 352.701 363.689 349.324 361.357C344.974 358.332 337.946 352.386 337.936 351.679C337.932 351.422 338.695 350.768 339.653 350.305C342.271 349.046 342.941 346.336 341.302 344.109C339.468 341.756 337.528 340.947 331.924 340.254C326.707 339.62 323.607 338.635 323.593 337.671C323.589 337.349 324.22 336.505 324.983 335.915C326.826 334.346 326.716 331.133 324.694 329.039C323.845 328.151 321.7 326.51 319.883 325.313C316.899 323.426 314.357 320.954 309.912 315.809C307.493 312.949 302.612 299.644 303.427 298.153C303.742 297.699 311.289 299.457 312.716 300.338C313.105 300.525 315.588 303.384 318.334 306.624C321.017 309.93 324.282 313.485 325.519 314.561C335.476 323.037 354.515 323.541 367.586 315.641C372.304 312.81 377.304 307.145 379.864 301.708C382.548 295.948 382.896 288.742 380.704 283.757C379.311 280.69 374.349 275.359 372.871 275.38C371.971 275.392 372.044 276.034 373.09 277.241C373.612 277.813 374.343 279.474 374.748 280.883C379.334 296.057 362.92 308.505 345.23 303.353C338.321 301.328 329.445 296.566 329.422 294.895C329.416 294.445 330.175 293.598 331.195 292.941C338.392 288.081 342.015 280.507 343.811 266.465C345.205 255.836 347.112 249.701 350.15 246.315L351.415 244.818L350.001 244.838C347.944 244.867 343.299 248.34 340.712 251.848C339.45 253.538 337.949 256.581 337.4 258.646C336.85 260.712 336.231 262.392 336.038 262.395C335.845 262.398 335.122 261.315 334.397 260.039C332.879 257.231 328.983 254.521 325.11 253.482C322.593 252.811 321.244 252.894 316.374 254.055C314.708 254.465 314.643 254.401 315.268 253.171C315.644 252.458 315.95 251.361 315.943 250.846C315.9 247.825 325.539 229.107 327.146 229.085C327.339 229.082 327.484 230.237 327.376 231.718C327.096 234.615 328.636 238.966 330.73 241.572C333.478 244.942 339.755 247.811 338.689 245.19C338.487 244.55 338.083 243.205 337.939 242.114C337.732 241.088 337.252 238.973 336.844 237.436C336.097 234.617 336.7 227.15 338.155 220.892C338.942 217.409 343.645 208.92 344.802 208.904C345.316 208.896 346.291 209.654 347.076 210.543C350.675 215.058 361.088 219.348 366.737 218.69C374.312 217.812 381.737 210.828 382.222 204.198C382.593 198.599 381.386 195.015 380.61 199.334C380.131 201.784 377.411 205.037 374.411 206.558C371.22 208.275 365.884 208.35 362.069 206.796C358.253 205.242 353.038 200.172 353.269 198.304C353.502 196.565 361.531 191.436 366.906 189.56C370.617 188.287 370.617 188.287 368.429 188.124C365.21 187.848 364.685 187.084 366.524 185.258C370.519 181.279 375.736 172.783 378.468 165.865C379.398 163.408 380.745 158.567 381.404 155.15C382.602 148.896 383.433 139.432 382.911 138.861ZM372.219 151.292C370.208 159.165 367.598 165.632 363.957 171.855C359.374 179.764 358.109 181.261 356.939 180.377C355.313 179.05 353.52 174.96 352.092 169.45C349.778 160.352 350.412 155.135 355.2 143.559C356.816 139.614 358.549 134.831 359.037 132.895C359.587 130.894 360.257 128.249 360.626 127.022C360.93 125.796 361.592 122.572 362.133 119.928C363.514 112.9 363.263 113.353 365.14 114.227C366.045 114.6 366.76 115.169 366.765 115.49C366.768 115.747 367.158 115.999 367.608 115.993C369.151 115.971 371.248 118.771 372.653 122.673C374.662 128.368 374.412 142.645 372.219 151.292ZM349.481 189.548C348.21 190.595 347.493 189.898 346.876 187.206C346.328 184.834 346.584 184.702 348.789 186.086C350.671 187.281 350.879 188.371 349.481 189.548ZM331.767 274.157C329.591 279.46 322.904 284.055 319.159 282.951C317.738 282.521 315.14 276.063 314.826 272.016C314.598 269.512 314.661 269.447 316.4 269.615C319.233 269.897 321.138 268.198 322.242 264.389C323.834 258.773 325.874 257.458 329.188 259.984C332.763 262.698 333.944 268.983 331.767 274.157ZM315.648 220.759C309.373 227.148 304.07 234.167 300.686 240.387C296.989 247.319 294.115 253.275 294.125 253.982C294.131 254.368 293.573 255.855 292.952 257.407C291.518 260.642 289.553 267.164 288.591 271.935C287.746 275.869 286.912 276.01 285.061 272.371C284.004 270.392 283.722 268.66 283.654 263.774C283.586 254.388 286.04 245.994 290.891 238.918C296.437 230.931 302.789 225.376 314.837 217.941C317.132 216.494 319.106 215.18 319.167 214.922C319.416 214.34 321.214 214.186 321.222 214.701C321.224 214.893 318.691 217.63 315.648 220.759ZM194.037 86.5408C180.731 86.7922 174.349 85.6602 166.835 81.715C163.596 80.0245 162.875 79.0059 164.868 78.9778C167.053 78.9471 180.13 80.6279 187.22 81.8785C199.08 83.9622 201.206 84.2538 205.579 84.2567L209.758 84.2622L207.522 85.2581C205.797 86.054 202.779 86.3536 194.037 86.5408ZM177.835 109.466C173.155 110.496 164.727 110.165 159.627 108.693C154.591 107.221 148.315 104.416 145.909 102.521C141.749 99.2998 138.358 95.9396 135.542 92.3142C132.006 87.7987 131.998 87.2201 136.087 85.3623C144.904 81.3804 152.715 78.9558 153.885 79.8395C154.276 80.2198 154.874 81.626 155.088 83.1019C155.991 87.9116 162.754 93.2819 170.237 95.0414C174.108 95.9514 174.438 96.5255 171.617 97.1438C168.668 97.764 166.545 97.6652 163.831 96.7389C162.475 96.3079 161.314 96.067 161.124 96.2626C160.933 96.3938 161.534 97.9929 162.459 99.7159C165.034 104.566 171.06 107.825 177.489 107.735C180.832 107.688 181.039 108.714 177.835 109.466Z" fill="#515938"/>
</svg>
