<svg width="211" height="201" viewBox="0 0 211 201" fill="none" xmlns="http://www.w3.org/2000/svg">
<g clip-path="url(#clip0_120_5335)">
<path d="M104.579 46.0947C93.5004 47.2822 84.6411 55.4072 82.4379 66.3603C81.9692 68.6572 81.9379 73.5322 82.3754 76.3135C83.5786 84.2666 86.9223 92.2041 92.4223 100.298L93.7036 102.173L93.2817 102.282C93.0473 102.345 91.8754 102.642 90.6723 102.938C84.3598 104.501 79.6723 107.173 77.8911 110.22C76.3442 112.892 76.8754 116.11 79.2973 118.579C85.0004 124.407 101.11 127.345 116.61 125.376C129.985 123.673 137.938 118.61 136.891 112.47C136.266 108.876 132.579 105.86 126.172 103.751C125.032 103.376 123.266 102.876 122.235 102.642C121.204 102.407 120.344 102.22 120.344 102.204C120.329 102.188 121.094 101.017 122.032 99.6103C128.875 89.2978 132.36 78.9228 131.954 69.9853C131.422 58.3603 123.172 48.751 111.766 46.4697C110.235 46.1572 106.016 45.9385 104.579 46.0947ZM111.219 51.4541C115.141 52.3447 118.188 54.0322 121.079 56.9228C123.985 59.8135 125.75 63.0635 126.625 67.0947C127.016 68.876 127.016 73.3135 126.641 75.7666C125.329 84.2666 121.079 93.0947 113.938 102.188C112.25 104.345 108.954 108.095 107.704 109.282L106.969 109.985L105.282 108.235C102.141 104.97 98.4536 100.345 95.8598 96.3916C91.1723 89.2197 88.4223 82.5478 87.3598 75.7666C86.9692 73.3291 86.9848 68.8916 87.3754 67.0947C88.2504 63.0322 89.9848 59.876 92.9223 56.9228C95.7661 54.0635 98.9067 52.3291 102.766 51.4697C104.657 51.0635 105.079 51.0166 107.625 51.0947C109.11 51.126 110.344 51.251 111.219 51.4541ZM98.0942 107.751C99.6879 109.673 103.188 113.407 104.532 114.61C106.61 116.485 107.36 116.485 109.391 114.688C110.657 113.548 114.344 109.642 115.922 107.751L116.735 106.751L117.61 106.86C118.094 106.907 119.454 107.173 120.657 107.438C125.594 108.501 129.625 110.267 131.266 112.079C132.266 113.188 132.235 113.876 131.094 115.095C127.954 118.454 117.594 121.001 107 121.001C96.4379 121.001 86.0473 118.454 82.9067 115.095C81.7973 113.907 81.7348 113.204 82.6411 112.173C84.3286 110.267 88.5786 108.407 93.7973 107.345C97.3754 106.61 97.1098 106.579 98.0942 107.751Z" fill="#515938"/>
<path d="M104.828 61.2353C102.063 61.8447 99.4063 63.9072 98.125 66.4697C96.6407 69.4228 96.6407 72.5634 98.0938 75.454C101.141 81.5322 109.172 82.8759 113.938 78.1103C115.859 76.204 116.797 74.1572 116.953 71.5478C117.328 64.9853 111.281 59.8447 104.828 61.2353ZM109.359 66.6415C110.406 67.204 110.891 67.704 111.5 68.8759C111.844 69.5478 111.906 69.8759 111.906 71.0009C111.922 72.2197 111.875 72.4072 111.391 73.3134C110.797 74.4072 110.297 74.8759 109.125 75.5009C108.453 75.8447 108.125 75.9072 107 75.9072C105.875 75.9072 105.547 75.8447 104.875 75.5009C103.703 74.8759 103.203 74.4072 102.609 73.3134C102.125 72.4072 102.078 72.2197 102.094 71.0009C102.094 69.5478 102.375 68.7665 103.234 67.704C103.703 67.1415 105 66.3447 105.813 66.1415C106.797 65.8759 108.344 66.1103 109.359 66.6415Z" fill="#515938"/>
</g>
<path d="M189.512 83.9941C189.512 129.558 152.575 166.494 107.012 166.494C61.4483 166.494 24.5117 129.558 24.5117 83.9941C24.5117 38.4306 61.4483 1.49414 107.012 1.49414C152.575 1.49414 189.512 38.4306 189.512 83.9941Z" stroke="#515938" stroke-width="2.2" stroke-linecap="round" stroke-linejoin="round" stroke-dasharray="6.6 11"/>
<path d="M16.6654 137.707L15.7938 137.861L15.0395 137.955L14.168 138.11L13.3078 138.228C13.1638 137.53 13.005 136.898 12.8315 136.334C12.6579 135.77 12.3727 135.105 11.9759 134.339L11.1228 132.522L10.7453 131.736L10.1119 130.399L9.72222 129.59L9.55213 129.262L9.297 128.77C9.65925 128.78 9.99721 128.744 10.3109 128.661C10.6245 128.577 11.0314 128.406 11.5314 128.147L28.2195 119.497C28.8445 119.173 29.2763 118.82 29.5147 118.439C29.7532 118.057 29.9026 117.504 29.9629 116.779L29.9881 116.082L30.009 115.893L29.9145 115.079L32.3079 119.697L11.5649 130.449C11.4277 130.758 11.369 131.046 11.3886 131.313C11.4082 131.581 11.5274 131.925 11.7461 132.347C11.9648 132.769 12.3437 133.385 12.883 134.196C13.4459 135.015 14.0187 135.699 14.6014 136.249C15.1922 136.815 15.8801 137.301 16.6654 137.707Z" fill="#515938"/>
<path d="M27.9313 149.204C26.8667 149.984 25.7553 150.373 24.5972 150.371C23.4391 150.369 22.3714 149.984 21.3941 149.216C20.9022 148.813 20.4897 148.384 20.1568 147.93C19.2619 146.709 18.9263 145.373 19.1499 143.922C19.3981 142.474 20.161 141.282 21.4385 140.346C22.4889 139.576 23.5809 139.19 24.7144 139.188C25.8726 139.191 26.9596 139.572 27.9757 140.333C28.443 140.732 28.8224 141.131 29.1137 141.528C29.4259 141.954 29.6916 142.436 29.911 142.973C30.3309 144.171 30.3624 145.316 30.0054 146.407C29.6731 147.501 28.9817 148.434 27.9313 149.204ZM26.8075 147.67C28.0709 146.744 28.8493 145.737 29.1429 144.649C29.4468 143.575 29.3022 142.634 28.7091 141.825C28.1057 141.002 27.2707 140.577 26.2044 140.551C25.0255 140.521 23.783 140.984 22.4771 141.941C22.1364 142.191 21.7934 142.497 21.4479 142.859C20.6671 143.759 20.2071 144.62 20.0679 145.442C19.9532 146.268 20.1508 147.029 20.6607 147.725C21.2642 148.548 22.092 148.978 23.1441 149.014C24.3089 149.055 25.53 148.607 26.8075 147.67Z" fill="#515938"/>
<path d="M35.1689 160.681L34.9617 160.809C34.447 161.113 33.8977 161.229 33.3137 161.159C32.7297 161.088 31.9934 160.797 31.1047 160.286C30.6852 160.031 30.2977 159.721 29.9421 159.355C28.7158 158.092 28.2898 156.567 28.6643 154.781C28.9955 153.404 29.584 152.305 30.4298 151.483C31.1368 150.796 31.9708 150.367 32.9316 150.194C33.9174 150.022 34.9176 150.142 35.9322 150.555C36.4148 150.749 36.8099 150.966 37.1176 151.207C37.4379 151.436 37.7084 151.664 37.9291 151.891C38.6036 152.585 39.0218 153.357 39.1837 154.205C39.3005 154.73 39.2994 155.234 39.1804 155.718C38.5957 155.697 38.0502 155.552 37.5438 155.283L37.0812 154.996C37.2316 154.924 37.3699 154.826 37.4962 154.704C37.7865 154.422 37.9409 154.075 37.9593 153.665C38.0026 153.255 37.871 152.892 37.5644 152.576C37.4667 152.45 37.3933 152.362 37.3442 152.312C36.682 151.63 35.7904 151.318 34.6694 151.377C33.5733 151.435 32.6086 151.87 31.7754 152.679C31.4976 152.949 31.2503 153.262 31.0336 153.62C30.2685 154.879 29.9586 156.075 30.1039 157.21L30.2619 157.903C30.4631 158.615 30.7722 159.186 31.1891 159.615C31.7777 160.221 32.625 160.588 33.7309 160.717L34.8324 160.714L35.1689 160.681Z" fill="#515938"/>
<path d="M45.7655 172.556L44.3076 171.421L44.9581 168.179L44.5181 168.272C43.314 168.472 42.3113 168.527 41.5103 168.439C40.7092 168.35 39.9831 168.108 39.3319 167.713C39.2517 167.672 39.1352 167.593 38.9825 167.474C38.2882 166.933 37.8819 166.237 37.7637 165.387C37.6701 164.533 37.8829 163.773 38.402 163.106C38.9643 162.384 39.7434 161.943 40.7392 161.781C41.7349 161.62 42.9149 161.781 44.2791 162.263C44.5137 162.334 44.79 162.438 45.1078 162.574C45.4396 162.721 45.7413 162.878 46.0129 163.045L46.3219 161.445C46.4521 160.676 46.2256 160.065 45.6424 159.611C45.4203 159.437 45.1741 159.324 44.904 159.27C45.2143 159.244 45.4644 159.238 45.6543 159.252C45.8549 159.252 46.1343 159.28 46.4924 159.336L46.8188 159.389C47.1414 159.462 47.5251 159.27 47.97 158.813L48.0277 159.126L48.0391 159.369C48.0881 159.965 48.0513 160.728 47.9287 161.659L47.8379 162.291L45.7655 172.556ZM45.0603 167.791L45.9153 163.471C45.471 163.124 45.0335 162.884 44.603 162.75C42.4948 162.134 40.9973 162.395 40.1105 163.534C39.6562 164.117 39.4443 164.733 39.4748 165.381C39.5299 166.026 39.8421 166.571 40.4114 167.014C40.5472 167.097 40.6428 167.161 40.6984 167.204C41.1057 167.454 41.5232 167.635 41.9507 167.744C42.3921 167.865 42.9207 167.931 43.5366 167.942C43.8253 167.944 44.0506 167.941 44.2127 167.934C44.3856 167.912 44.6681 167.864 45.0603 167.791Z" fill="#515938"/>
<path d="M54.6932 177.801C54.4366 177.852 54.18 177.852 53.9235 177.8C53.667 177.749 53.3576 177.614 52.9956 177.397C52.905 177.342 52.8145 177.288 52.724 177.234C52.6063 177.122 52.5098 177.043 52.4343 176.998C51.502 176.294 50.9895 175.268 50.8966 173.919C50.7947 172.482 51.2241 170.964 52.1848 169.365C52.4748 168.882 52.8433 168.405 53.2903 167.934C53.7463 167.449 54.3578 166.892 55.1248 166.265L55.7499 165.839L56.8912 165.016C57.012 164.883 57.0951 164.779 57.1404 164.704C57.3851 164.296 57.4307 163.759 57.2771 163.092L57.0963 162.521L57.1416 162.395C57.2715 162.247 57.5084 162.245 57.8525 162.391C58.1965 162.536 58.5858 162.708 59.0203 162.907L60.65 163.27L60.7768 163.316L61.2974 163.474C60.1259 164.023 58.9997 164.702 57.9187 165.51C56.9706 166.234 56.1432 166.979 55.4364 167.745C54.7539 168.506 54.177 169.278 53.7057 170.063C53.3613 170.636 53.0984 171.176 52.9171 171.683C52.3759 173.267 52.2138 174.494 52.4307 175.364C52.6717 176.227 53.3504 176.994 54.4669 177.665L54.6932 177.801Z" fill="#515938"/>
<path d="M82.3488 171.748C82.1123 172.001 81.8639 172.316 81.6038 172.691C81.366 173.056 81.1331 173.488 80.9051 173.986L80.6224 174.643L76.8808 185.472C76.7371 185.888 76.6535 186.157 76.6299 186.279C76.6063 186.401 76.6013 186.605 76.6149 186.889L76.6525 187.265L74.7561 186.609L75.0924 185.636L74.1042 185.909C73.0501 186.104 72.0823 186.049 71.2006 185.744C70.0528 185.348 69.1619 184.612 68.528 183.536C67.8941 182.46 67.6682 181.228 67.8503 179.838C67.8636 179.638 67.8964 179.435 67.9488 179.23C68.0011 179.025 68.0675 178.805 68.148 178.573C68.648 177.125 69.533 176.1 70.8031 175.496C72.0955 174.881 73.4737 174.826 74.9376 175.332C75.054 175.372 75.1788 175.415 75.3119 175.461C75.4667 175.552 75.5858 175.612 75.6689 175.641C76.5827 176.068 77.3359 176.663 77.9287 177.427L78.7218 175.131C78.8483 174.765 78.8221 174.356 78.6434 173.903C78.4704 173.434 78.1551 172.999 77.6975 172.599L77.4738 172.438C78.1904 172.573 78.9417 172.582 79.7278 172.462L79.8199 172.438L81.3194 171.979L82.3488 171.748ZM75.7131 183.84L77.3166 179.199C77.4833 178.716 77.2344 178.062 76.5699 177.237L76.0495 176.722C75.6195 176.35 75.1715 176.083 74.7057 175.922C73.7575 175.595 72.8489 175.718 71.9799 176.293C71.0381 176.918 70.3142 177.962 69.8085 179.426C69.7165 179.692 69.6501 179.911 69.6093 180.083C69.5684 180.255 69.5184 180.508 69.4591 180.841C69.2966 181.958 69.3921 182.894 69.7457 183.649C70.1159 184.41 70.6669 184.917 71.3989 185.17C71.8647 185.331 72.4097 185.371 73.034 185.288L73.7708 185.096C74.3739 184.913 74.8212 184.723 75.1128 184.526C75.4268 184.318 75.6269 184.089 75.7131 183.84Z" fill="#515938"/>
<path d="M93.4191 190.806L91.6012 190.474L90.6787 187.299L90.3313 187.585C89.3561 188.319 88.493 188.832 87.7418 189.124C86.9906 189.416 86.2349 189.538 85.4746 189.488C85.3849 189.489 85.2448 189.473 85.0544 189.438C84.1887 189.28 83.5067 188.851 83.0084 188.151C82.5305 187.438 82.3675 186.666 82.5195 185.835C82.6841 184.934 83.1704 184.182 83.9786 183.579C84.7867 182.975 85.9072 182.571 87.3399 182.368C87.5808 182.323 87.8736 182.287 88.2184 182.26C88.5805 182.237 88.9205 182.237 89.2385 182.259L88.7724 180.698C88.5323 179.956 88.0487 179.519 87.3215 179.386C87.0445 179.335 86.7737 179.348 86.5092 179.425C86.7723 179.259 86.9912 179.138 87.166 179.062C87.344 178.969 87.6046 178.865 87.9479 178.749L88.262 178.645C88.5817 178.561 88.8331 178.213 89.0163 177.602L89.2121 177.853L89.3346 178.063C89.6537 178.569 89.9742 179.262 90.296 180.144L90.5079 180.747L93.4191 190.806ZM90.5893 186.907L89.349 182.682C88.795 182.581 88.296 182.57 87.852 182.65C85.6981 183.079 84.4914 184.003 84.2318 185.423C84.0989 186.15 84.1958 186.794 84.5227 187.355C84.8701 187.901 85.3987 188.24 86.1085 188.369C86.2675 188.381 86.3816 188.392 86.4509 188.405C86.9278 188.439 87.3812 188.405 87.8111 188.305C88.2583 188.208 88.7575 188.022 89.3087 187.747C89.5654 187.615 89.7639 187.508 89.904 187.426C90.0474 187.327 90.2758 187.154 90.5893 186.907Z" fill="#515938"/>
<path d="M117.2 190.684L116.865 190.883C116.399 191.115 115.999 191.237 115.665 191.252C115.103 191.275 114.401 190.927 113.56 190.205L113.368 190.054L112.131 188.918L111.884 188.691C111.081 188.038 110.562 187.637 110.326 187.488C110.09 187.322 109.857 187.218 109.626 187.175L109.018 187.174L109.144 190.128C109.161 190.533 109.21 190.865 109.292 191.126L109.413 191.491L107.25 191.583C107.428 191.205 107.505 190.744 107.482 190.199L107.187 183.262C107.155 182.506 106.804 181.904 106.133 181.457L105.835 181.285C106.043 181.205 106.297 181.159 106.596 181.147C107.035 181.128 107.488 181.223 107.955 181.432L108.527 181.831C109.427 181.035 110.457 180.613 111.618 180.563C112.145 180.541 112.721 180.613 113.345 180.781C114.521 181.118 115.132 181.806 115.176 182.843C115.196 183.318 115.041 183.8 114.709 184.29C114.377 184.762 113.953 185.159 113.438 185.48C112.94 185.783 112.213 186.078 111.256 186.365L110.708 186.521L110.473 186.584L110.211 186.648C110.883 186.707 111.48 186.867 112.002 187.126C112.541 187.368 113.122 187.766 113.744 188.321L113.799 188.371L114.847 189.41C115.325 189.883 115.727 190.21 116.052 190.39C116.376 190.57 116.759 190.668 117.2 190.684ZM113.221 184.089C113.333 183.82 113.382 183.527 113.368 183.211C113.332 182.349 112.884 181.769 112.026 181.471C111.704 181.344 111.367 181.287 111.015 181.302C110.681 181.317 110.315 181.411 109.917 181.587C109.52 181.762 109.236 181.933 109.067 182.099C108.897 182.247 108.816 182.409 108.823 182.584L108.988 186.462L109.514 186.413C110.512 186.265 111.319 185.975 111.935 185.544C112.568 185.112 112.997 184.627 113.221 184.089Z" fill="#515938"/>
<path d="M130.467 186.847L130.246 187.262C129.801 188.074 129.276 188.687 128.67 189.099C128.082 189.508 127.355 189.79 126.488 189.945C125.224 190.171 123.957 189.835 122.687 188.936C122.054 188.495 121.538 187.961 121.14 187.335C120.742 186.709 120.478 186.032 120.348 185.304C120.329 185.2 120.316 185.077 120.309 184.936C120.302 184.794 120.292 184.689 120.279 184.619C120.232 183.358 120.496 182.283 121.07 181.394C121.701 180.423 122.515 179.776 123.512 179.455C123.85 179.341 124.183 179.255 124.512 179.196C125.655 178.991 126.633 179.111 127.446 179.556C128.276 179.997 128.762 180.617 128.905 181.414L121.94 182.659L121.936 183.089C121.972 183.887 122.035 184.538 122.125 185.04C122.211 185.525 122.32 185.935 122.452 186.269C122.853 187.216 123.49 187.925 124.361 188.395C125.228 188.848 126.164 188.984 127.169 188.804C127.914 188.671 128.576 188.374 129.155 187.913L129.323 187.802L129.946 187.235C130.003 187.153 130.176 187.024 130.467 186.847ZM127.023 181.241C126.855 180.699 126.494 180.28 125.941 179.986C125.387 179.692 124.816 179.597 124.227 179.703C123.933 179.755 123.64 179.87 123.35 180.047C123.057 180.207 122.804 180.44 122.59 180.746C122.377 181.053 122.212 181.431 122.096 181.881L122.034 182.133L127.023 181.241Z" fill="#515938"/>
<path d="M143.74 182.472L143.762 182.714C143.806 183.31 143.666 183.854 143.343 184.345C143.02 184.837 142.432 185.367 141.579 185.936C141.164 186.198 140.714 186.407 140.228 186.563C138.551 187.1 136.996 186.804 135.562 185.674C134.477 184.765 133.754 183.749 133.394 182.626C133.093 181.687 133.079 180.749 133.352 179.812C133.636 178.852 134.188 178.01 135.009 177.285C135.398 176.939 135.768 176.681 136.121 176.513C136.468 176.328 136.792 176.187 137.094 176.09C138.016 175.795 138.893 175.763 139.725 175.996C140.247 176.124 140.698 176.35 141.078 176.671C140.799 177.186 140.427 177.61 139.961 177.944L139.499 178.231C139.5 178.064 139.475 177.896 139.421 177.729C139.297 177.343 139.056 177.051 138.696 176.852C138.348 176.631 137.965 176.587 137.546 176.722C137.39 176.753 137.278 176.78 137.211 176.801C136.306 177.091 135.63 177.751 135.184 178.781C134.749 179.789 134.709 180.846 135.063 181.952C135.182 182.321 135.353 182.682 135.577 183.036C136.364 184.28 137.298 185.09 138.379 185.464L139.07 185.631C139.797 185.768 140.446 185.745 141.016 185.562C141.82 185.304 142.526 184.709 143.132 183.775L143.62 182.787L143.74 182.472Z" fill="#515938"/>
<path d="M156.678 177.061L156.574 177.519C156.361 178.42 156.016 179.15 155.541 179.708C155.082 180.258 154.456 180.723 153.661 181.101C152.501 181.654 151.191 181.665 149.728 181.134C149.001 180.876 148.363 180.498 147.813 180C147.264 179.501 146.83 178.918 146.512 178.251C146.466 178.156 146.421 178.041 146.376 177.906C146.332 177.771 146.294 177.672 146.264 177.609C145.885 176.405 145.855 175.298 146.173 174.289C146.524 173.185 147.138 172.347 148.015 171.773C148.31 171.574 148.609 171.402 148.91 171.258C149.959 170.758 150.934 170.615 151.835 170.829C152.752 171.035 153.385 171.504 153.734 172.235L147.347 175.279L147.457 175.695C147.703 176.455 147.935 177.065 148.155 177.526C148.367 177.971 148.58 178.337 148.795 178.625C149.434 179.432 150.235 179.947 151.199 180.169C152.156 180.376 153.095 180.26 154.016 179.821C154.699 179.495 155.259 179.033 155.695 178.436L155.828 178.284L156.278 177.573C156.312 177.479 156.445 177.308 156.678 177.061ZM151.873 172.566C151.567 172.088 151.109 171.78 150.497 171.642C149.886 171.505 149.31 171.565 148.77 171.822C148.5 171.951 148.248 172.139 148.015 172.387C147.775 172.618 147.592 172.91 147.467 173.262C147.343 173.614 147.284 174.022 147.291 174.487L147.298 174.747L151.873 172.566Z" fill="#515938"/>
<path d="M169.444 168.988C169.433 169.886 169.227 170.714 168.825 171.473C168.413 172.217 167.813 172.854 167.025 173.384C166.003 174.072 164.977 174.391 163.946 174.342L163.705 174.314L163.463 174.286L165.423 177.199C165.944 177.973 166.629 178.392 167.479 178.457C167.096 179.054 166.863 179.497 166.782 179.785L166.406 180.929C166.25 181.139 166.109 181.15 165.981 180.96L158.7 170.14C158.179 169.366 157.572 168.841 156.878 168.566C156.486 168.426 156.088 168.355 155.683 168.352C155.799 168.146 155.974 167.965 156.208 167.808C156.588 167.552 157.141 167.413 157.868 167.39L158.615 167.46L158.709 167.174L158.848 166.954C159.273 165.947 159.982 165.109 160.975 164.441C161.281 164.234 161.591 164.048 161.902 163.88C162.214 163.713 162.523 163.59 162.831 163.51C163.883 163.184 164.928 163.223 165.965 163.628C167.006 164.01 167.836 164.66 168.456 165.58C169.124 166.573 169.453 167.709 169.444 168.988ZM166.909 166.971C166.064 165.715 165.141 164.926 164.139 164.603C163.127 164.266 162.205 164.377 161.372 164.937C160.978 165.202 160.628 165.565 160.323 166.025L159.93 166.671C159.708 167.16 159.582 167.573 159.555 167.91C159.527 168.247 159.577 168.511 159.704 168.7L162.357 172.643C162.485 172.833 162.708 172.99 163.026 173.116C163.358 173.232 163.82 173.303 164.411 173.33L165.231 173.319C165.797 173.277 166.306 173.104 166.759 172.8C167.387 172.377 167.787 171.758 167.959 170.942C168.121 170.111 167.995 169.199 167.581 168.205C167.379 167.747 167.155 167.336 166.909 166.971Z" fill="#515938"/>
<path d="M181.33 158.287L181.451 158.499C181.738 159.023 181.836 159.576 181.746 160.157C181.657 160.739 181.342 161.465 180.802 162.337L180.224 163.113L180.307 163.715C181.195 163.906 181.859 164.243 182.297 164.725C182.925 165.415 183.042 166.224 182.649 167.152C182.426 167.665 182.177 168.045 181.904 168.294C181.63 168.543 181.331 168.684 181.005 168.719C180.693 168.742 180.34 168.694 179.947 168.575L179.783 166.904C179.839 167.044 179.92 167.173 180.026 167.29C180.24 167.524 180.508 167.649 180.831 167.664C181.413 167.729 181.848 167.631 182.134 167.371C182.421 167.11 182.542 166.655 182.498 166.005C182.478 165.904 182.432 165.815 182.361 165.737C182.195 165.555 181.867 165.377 181.377 165.204C181.07 165.103 180.634 164.976 180.068 164.825L179.911 163.397C178.544 164.641 176.981 165.04 175.22 164.596C173.855 164.22 172.775 163.595 171.982 162.723C171.319 161.994 170.916 161.147 170.775 160.181C170.635 159.19 170.788 158.194 171.234 157.193C171.444 156.717 171.674 156.33 171.925 156.03C172.164 155.717 172.4 155.454 172.635 155.241C173.351 154.59 174.135 154.197 174.989 154.063C175.517 153.963 176.021 153.981 176.5 154.116C176.46 154.7 176.298 155.24 176.012 155.737L175.711 156.19C175.643 156.038 175.55 155.896 175.432 155.766C175.159 155.467 174.818 155.301 174.409 155.269C174 155.212 173.633 155.332 173.308 155.628C173.179 155.722 173.088 155.792 173.036 155.84C172.333 156.479 171.993 157.36 172.014 158.482C172.037 159.58 172.439 160.558 173.221 161.418C173.482 161.704 173.787 161.961 174.138 162.19C175.37 162.996 176.556 163.344 177.695 163.236L178.393 163.101C179.111 162.923 179.692 162.633 180.135 162.23C180.76 161.662 181.154 160.827 181.318 159.726L181.352 158.625L181.33 158.287Z" fill="#515938"/>
<path d="M193.557 148.061L192.374 149.481L189.156 148.724L189.234 149.167C189.394 150.377 189.417 151.381 189.302 152.179C189.187 152.977 188.922 153.694 188.505 154.332C188.462 154.411 188.379 154.525 188.255 154.674C187.692 155.35 186.983 155.733 186.129 155.824C185.273 155.889 184.52 155.651 183.871 155.111C183.168 154.525 182.752 153.732 182.623 152.731C182.494 151.731 182.694 150.557 183.221 149.209C183.299 148.977 183.412 148.704 183.558 148.391C183.716 148.064 183.883 147.768 184.058 147.502L182.47 147.141C181.706 146.985 181.087 147.192 180.614 147.76C180.434 147.976 180.312 148.218 180.249 148.486C180.233 148.176 180.236 147.925 180.256 147.736C180.263 147.536 180.3 147.257 180.367 146.901L180.431 146.577C180.515 146.257 180.335 145.867 179.894 145.407L180.208 145.36L180.451 145.356C181.049 145.327 181.81 145.389 182.736 145.542L183.365 145.653L193.557 148.061ZM188.771 148.61L184.481 147.613C184.121 148.046 183.866 148.476 183.717 148.901C183.033 150.988 183.245 152.494 184.354 153.417C184.922 153.89 185.53 154.122 186.179 154.113C186.826 154.079 187.38 153.785 187.842 153.231C187.93 153.098 187.997 153.004 188.042 152.95C188.305 152.551 188.499 152.14 188.623 151.716C188.758 151.279 188.841 150.753 188.872 150.137C188.884 149.849 188.888 149.624 188.886 149.461C188.87 149.288 188.832 149.004 188.771 148.61ZM180.687 141.567L180.758 141.729C180.889 142.067 180.958 142.342 180.965 142.554C180.976 142.678 180.958 142.892 180.911 143.196C180.685 143.329 180.47 143.436 180.265 143.518C179.857 143.705 179.443 143.886 179.021 144.062C178.805 144.157 178.584 144.339 178.359 144.61C178.201 144.799 178.072 145.023 177.97 145.283C177.855 145.53 177.771 145.838 177.717 146.205C177.701 146.307 177.697 146.463 177.704 146.675C177.708 146.862 177.716 147.018 177.727 147.142L177.217 147.095L177.457 145.404L177.555 145.245L177.652 144.88C177.711 144.7 177.8 144.511 177.919 144.312C178.039 144.114 178.166 143.934 178.301 143.772C178.684 143.312 179.175 142.942 179.775 142.663C179.989 142.543 180.152 142.416 180.265 142.28C180.377 142.145 180.48 141.967 180.572 141.746L180.687 141.567Z" fill="#515938"/>
<path d="M197.443 132.268C198.57 132.956 199.352 133.836 199.79 134.908C200.229 135.98 200.278 137.114 199.94 138.309C199.754 138.918 199.514 139.462 199.221 139.943C198.432 141.235 197.324 142.053 195.896 142.398C194.463 142.719 193.07 142.466 191.719 141.64C190.607 140.962 189.835 140.098 189.403 139.05C188.964 137.978 188.904 136.828 189.222 135.599C189.413 135.015 189.638 134.513 189.895 134.092C190.17 133.641 190.514 133.212 190.928 132.805C191.876 131.961 192.923 131.497 194.068 131.413C195.206 131.304 196.332 131.589 197.443 132.268ZM196.452 133.89C195.116 133.074 193.888 132.736 192.77 132.879C191.661 133.006 190.846 133.497 190.323 134.353C189.791 135.225 189.715 136.158 190.097 137.154C190.517 138.256 191.418 139.229 192.8 140.073C193.16 140.293 193.573 140.494 194.04 140.676C195.169 141.056 196.14 141.155 196.953 140.971C197.761 140.763 198.39 140.291 198.839 139.555C199.371 138.684 199.454 137.755 199.087 136.768C198.682 135.675 197.804 134.716 196.452 133.89Z" fill="#515938"/>
<defs>
<clipPath id="clip0_120_5335">
<rect width="80" height="80" fill="white" transform="translate(67 46.001)"/>
</clipPath>
</defs>
</svg>
