<svg width="211" height="200" viewBox="0 0 211 200" fill="none" xmlns="http://www.w3.org/2000/svg">
<g clip-path="url(#clip0_118_5248)">
<path d="M85.6911 40.8213C81.2912 41.9039 78.1582 45.3238 77.4221 49.8607C77.1824 51.3386 77.1824 51.648 77.4392 53.1603C78.0898 57.1988 80.692 60.3781 84.6296 61.9248L85.8623 62.406L77.6446 62.4919C69.4784 62.5778 69.427 62.5778 68.6224 62.9731C67.6979 63.4371 67.0302 64.1417 66.5679 65.19C66.2769 65.8774 66.2598 66.4101 66.294 73.7139L66.3454 81.516L66.859 82.3409C67.5096 83.3892 68.4683 84.0766 69.6496 84.3516L70.5398 84.575V104.527C70.5398 126.73 70.4884 125.613 71.6868 126.954C72.0293 127.332 72.6285 127.813 73.0051 128.019L73.707 128.397H105.636H137.565L138.267 128.019C138.643 127.813 139.243 127.332 139.585 126.954C140.783 125.613 140.732 126.73 140.732 104.527V84.575L141.639 84.3516C142.804 84.0766 143.762 83.3892 144.413 82.3409L144.927 81.516L144.978 73.7654C145.029 65.0009 145.046 65.0869 143.728 63.7808C142.461 62.4919 142.427 62.4919 133.388 62.4919H125.41L126.882 61.8217C129.792 60.5328 131.539 58.9174 132.788 56.3911C133.901 54.157 134.226 52.1635 133.85 49.8607C133.234 46.1487 130.905 43.021 127.635 41.5258C123.698 39.7214 119.537 40.3401 115.651 43.2787C112.809 45.4269 108.615 49.9466 106.697 52.9025C106.15 53.7274 105.687 54.3976 105.636 54.3976C105.585 54.3976 105.105 53.7274 104.575 52.9025C102.657 49.9466 98.4455 45.4269 95.6207 43.2787C92.4021 40.8384 88.9952 39.9964 85.6911 40.8213ZM90.6045 45.3754C94.6106 47.0251 102.366 55.824 103.256 59.6907C103.376 60.2406 103.342 60.2578 102.657 60.464C101.63 60.7734 97.3498 60.7218 95.2783 60.3609C93.1725 59.9828 90.6901 59.3814 88.5159 58.6768C85.0576 57.5597 83.3285 56.3396 82.3013 54.243C81.8048 53.229 81.7535 52.9884 81.7535 51.4933C81.7535 50.0669 81.8048 49.7404 82.2328 48.8296C82.8149 47.5751 84.0304 46.2862 85.1775 45.7019C86.393 45.066 86.7183 44.9973 88.2591 44.9801C89.3205 44.9801 89.8512 45.066 90.6045 45.3754ZM125.923 45.5988C127.19 46.2518 128.457 47.5751 129.056 48.8811C129.45 49.7232 129.518 50.0841 129.518 51.4933C129.518 52.9197 129.45 53.2634 129.056 54.1227C128.08 56.2021 126.437 57.4394 123.133 58.5565C117.688 60.4125 111.354 61.2202 108.529 60.4297C107.93 60.2578 107.913 60.2234 108.016 59.6907C108.7 56.6661 114.436 49.517 118.527 46.6127C120.445 45.2379 121.352 44.9457 123.27 45.0145C124.691 45.066 125.033 45.1348 125.923 45.5988ZM92.4535 73.4905V80.0209H81.4967H70.5398V73.4905V66.9601H81.4967H92.4535V73.4905ZM114.367 95.4876V124.015H105.636H96.9047V95.4876V66.9601H105.636H114.367V95.4876ZM140.732 73.4905V80.0209H129.775H118.818V73.4905V66.9601H129.775H140.732V73.4905ZM92.4535 104.252V124.015H83.7223H74.991V104.252V84.4891H83.7223H92.4535V104.252ZM136.281 104.252V124.015H127.55H118.818V104.252V84.4891H127.55H136.281V104.252Z" fill="#515938"/>
</g>
<path d="M187.868 84.4894C187.868 130.047 151.077 166.979 105.692 166.979C60.3072 166.979 23.5156 130.047 23.5156 84.4894C23.5156 38.9317 60.3072 2 105.692 2C151.077 2 187.868 38.9317 187.868 84.4894Z" stroke="#515938" stroke-width="2.2" stroke-linecap="round" stroke-linejoin="round" stroke-dasharray="6.6 11"/>
<path d="M16.5734 137.86L15.7028 138.016L14.9494 138.11L14.0788 138.265L13.2196 138.385C13.0764 137.686 12.9184 137.054 12.7456 136.489C12.5728 135.924 12.2885 135.259 11.8928 134.492L11.0425 132.673L10.6662 131.887L10.0347 130.549L9.64632 129.739L9.47674 129.411L9.22237 128.918C9.58416 128.928 9.92172 128.892 10.235 128.808C10.5484 128.724 10.9549 128.552 11.4545 128.292L28.1291 119.616C28.7536 119.291 29.1851 118.938 29.4236 118.556C29.6621 118.174 29.8118 117.62 29.8727 116.894L29.8985 116.196L29.9195 116.006L29.8259 115.192L32.2121 119.813L11.4859 130.597C11.3486 130.907 11.2897 131.195 11.309 131.463C11.3284 131.731 11.4471 132.076 11.6652 132.498C11.8832 132.92 12.2611 133.537 12.7989 134.348C13.3604 135.167 13.9319 135.852 14.5133 136.403C15.1028 136.969 15.7895 137.455 16.5734 137.86Z" fill="#515938"/>
<path d="M29.1865 136.867C28.8255 136.771 28.5519 136.584 28.3657 136.306C28.1893 136.043 28.1248 135.726 28.1721 135.354C28.2731 134.967 28.4548 134.685 28.7173 134.508C29.0236 134.301 29.3523 134.238 29.7035 134.319C30.0693 134.391 30.3502 134.573 30.5462 134.865C30.7422 135.158 30.7994 135.48 30.7178 135.832C30.6508 136.175 30.4642 136.45 30.1579 136.657C29.8517 136.864 29.5278 136.934 29.1865 136.867ZM18.2212 144.879L16.8981 142.906L17.5117 142.778C17.7259 142.718 17.9278 142.624 18.1174 142.496L23.8491 138.624C24.2429 138.358 24.4906 138.127 24.5922 137.931C24.7085 137.725 24.7706 137.407 24.7788 136.977L24.7094 135.973L26.591 138.779L19.0436 143.878L18.5626 144.298C18.5141 144.352 18.4704 144.413 18.4317 144.482C18.3444 144.605 18.2742 144.737 18.2212 144.879Z" fill="#515938"/>
<path d="M32.569 150.089C32.2887 149.887 32.0329 149.757 31.8014 149.697C31.57 149.638 31.118 149.601 30.4455 149.587L29.8184 149.49C30.1199 149.469 30.381 149.412 30.6019 149.32C30.8362 149.217 31.055 149.082 31.2581 148.913C31.7051 148.542 31.9476 148.089 31.9859 147.554C32.0488 147.022 31.8845 146.518 31.4929 146.042C31.0229 145.471 30.5159 145.16 29.9718 145.109C29.3623 145.089 28.8341 145.264 28.3871 145.635C28.0756 145.893 27.8596 146.199 27.7389 146.55C27.6182 146.902 27.62 147.278 27.7442 147.678C27.8821 148.067 28.0022 148.379 28.1047 148.614C28.2184 148.863 28.4057 149.256 28.6666 149.794L29.0076 150.541C29.3315 151.072 29.4832 151.644 29.4626 152.256C29.4421 152.867 29.1745 153.387 28.6598 153.814C28.0639 154.309 27.3738 154.481 26.5894 154.332C25.8162 154.196 25.1113 153.866 24.4747 153.342C24.0577 153.002 23.7038 152.655 23.4129 152.302C22.6296 151.351 22.2288 150.38 22.2105 149.389C22.2169 148.4 22.5781 147.551 23.2941 146.843L23.5432 146.979L23.651 147.027L24.2534 147.385L24.4654 147.517C24.7481 147.695 25.2086 147.838 25.8469 147.949L25.6005 147.982C25.3326 148.044 25.087 148.134 24.8638 148.25C24.6542 148.356 24.4546 148.487 24.265 148.644C23.8045 149.027 23.5292 149.495 23.4392 150.05C23.3739 150.608 23.52 151.173 23.8774 151.745C24.007 151.958 24.1054 152.105 24.1725 152.186C24.5082 152.594 24.8995 152.875 25.3465 153.03C25.7934 153.185 26.2274 153.214 26.6485 153.116C26.957 153.02 27.2332 152.871 27.477 152.669C27.7749 152.421 27.9787 152.115 28.0882 151.75C28.2224 151.387 28.2318 151.024 28.1163 150.663C28.0121 150.315 27.8607 149.937 27.6622 149.53C27.4885 149.125 27.1961 148.59 26.785 147.925C26.7002 147.767 26.6322 147.629 26.5809 147.511C26.5721 147.473 26.53 147.325 26.4546 147.067C26.335 146.618 26.3526 146.168 26.5075 145.72C26.6759 145.26 26.9361 144.884 27.2882 144.591C27.8435 144.131 28.4798 143.934 29.197 144.002C29.6917 144.049 30.1713 144.188 30.6359 144.42C31.1006 144.652 31.5175 144.992 31.8868 145.441C33.3638 147.234 33.5912 148.783 32.569 150.089Z" fill="#515938"/>
<path d="M44.9699 159.097L44.2714 159.35L41.9477 157.197C41.4829 156.766 40.8623 156.479 40.0858 156.335C39.3222 156.203 38.4544 156.263 37.4824 156.514C36.5203 156.702 35.6758 157.192 34.9491 157.982C34.1986 158.798 33.8303 159.692 33.8444 160.665C33.8832 161.637 34.2835 162.476 35.0452 163.182C35.3938 163.505 35.8466 163.792 36.4036 164.044L37.5386 164.448L37.9154 164.546L38.1031 164.575C37.4031 164.791 36.7071 164.793 36.015 164.584C35.3348 164.362 34.6139 163.898 33.8522 163.192C33.026 162.426 32.513 161.567 32.3133 160.614C32.1265 159.673 32.2639 158.757 32.7254 157.865C32.8982 157.521 33.1096 157.213 33.3598 156.941C33.9197 156.332 34.6733 155.903 35.6205 155.653C36.5677 155.403 37.7096 155.357 39.0461 155.516L39.7968 155.635L40.0783 155.68L40.4179 155.779L36.1576 151.831L36.673 151.661C37.1009 151.482 37.426 151.375 37.6485 151.341C37.8957 151.306 38.071 151.337 38.1742 151.433C38.2646 151.516 38.3128 151.633 38.3188 151.782C38.4032 152.341 38.5324 152.772 38.7062 153.077C38.88 153.382 39.2251 153.774 39.7415 154.252L44.9699 159.097Z" fill="#515938"/>
<path d="M50.305 175.574L48.789 174.517L49.2583 171.24L48.8248 171.356C47.6355 171.622 46.6392 171.732 45.8358 171.686C45.0324 171.641 44.2952 171.439 43.6243 171.078C43.5421 171.042 43.4216 170.969 43.2628 170.858C42.5408 170.355 42.0974 169.681 41.9325 168.837C41.7921 167.988 41.9621 167.216 42.4428 166.522C42.9634 165.769 43.7156 165.285 44.6992 165.07C45.6829 164.854 46.8679 164.951 48.2545 165.359C48.4922 165.418 48.7733 165.507 49.0977 165.625C49.4365 165.754 49.7459 165.895 50.0258 166.047L50.2455 164.43C50.3328 163.654 50.0732 163.055 49.4668 162.632C49.2358 162.471 48.9842 162.371 48.7119 162.332C49.0198 162.289 49.2687 162.269 49.4587 162.273C49.6588 162.262 49.9388 162.275 50.2988 162.311L50.6272 162.347C50.9527 162.402 51.3246 162.19 51.7428 161.709L51.8176 162.018L51.8424 162.261C51.9242 162.854 51.9297 163.62 51.8589 164.557L51.8034 165.194L50.305 175.574ZM49.3386 170.846L49.9522 166.478C49.4901 166.156 49.0408 165.94 48.6041 165.828C46.4687 165.327 44.9904 165.669 44.1694 166.856C43.7489 167.464 43.5717 168.092 43.6378 168.738C43.7284 169.381 44.0697 169.908 44.6617 170.321C44.8017 170.397 44.9005 170.455 44.9583 170.496C45.3782 170.724 45.8042 170.881 46.2364 170.968C46.6831 171.065 47.2137 171.102 47.8282 171.08C48.116 171.066 48.3405 171.051 48.5017 171.035C48.6728 171.004 48.9518 170.941 49.3386 170.846Z" fill="#515938"/>
<path d="M77.9641 170.237C77.7177 170.48 77.4571 170.784 77.1823 171.149C76.9302 171.504 76.6803 171.925 76.4325 172.414L76.1239 173.059L71.9521 183.73C71.7919 184.14 71.6975 184.405 71.6691 184.526C71.6406 184.648 71.6274 184.85 71.6295 185.135L71.6519 185.513L69.7852 184.777L70.16 183.818L69.1626 184.05C68.1024 184.2 67.1384 184.104 66.2705 183.762C65.1406 183.317 64.2809 182.543 63.6915 181.441C63.102 180.338 62.9261 179.096 63.164 177.714C63.1854 177.515 63.2263 177.313 63.2868 177.11C63.3473 176.907 63.4225 176.691 63.5122 176.461C64.0697 175.035 64.9946 174.047 66.2868 173.497C67.6019 172.936 68.9799 172.94 70.4209 173.508C70.5356 173.553 70.6584 173.601 70.7894 173.653C70.9403 173.75 71.0567 173.815 71.1386 173.847C72.0335 174.313 72.7615 174.941 73.3225 175.729L74.2069 173.467C74.3478 173.106 74.3382 172.696 74.1781 172.236C74.0243 171.759 73.7271 171.311 73.2864 170.891L73.0696 170.721C73.7794 170.887 74.5291 170.927 75.3187 170.841L75.4116 170.82L76.9271 170.424L77.9641 170.237ZM70.8521 182.048L72.64 177.475C72.8259 176.999 72.6038 176.335 71.9737 175.481L71.475 174.945C71.0606 174.554 70.6242 174.269 70.1657 174.088C69.2323 173.721 68.3202 173.806 67.4295 174.344C66.4641 174.928 65.6994 175.942 65.1355 177.384C65.0329 177.647 64.9578 177.863 64.9101 178.033C64.8624 178.204 64.8022 178.454 64.7296 178.785C64.5224 179.895 64.58 180.835 64.9025 181.606C65.2414 182.382 65.7711 182.912 66.4916 183.196C66.9501 183.377 67.4926 183.439 68.1192 183.383L68.8625 183.222C69.4719 183.065 69.9262 182.894 70.2252 182.709C70.547 182.514 70.756 182.294 70.8521 182.048Z" fill="#515938"/>
<path d="M86.877 187.247L86.5114 187.542C85.784 188.114 85.061 188.471 84.3424 188.612C83.641 188.756 82.8617 188.73 82.0043 188.531C80.7526 188.241 79.7193 187.433 78.9045 186.107C78.4951 185.452 78.2301 184.758 78.1094 184.026C77.9887 183.293 78.0111 182.567 78.1766 181.846C78.2003 181.743 78.2364 181.625 78.2851 181.492C78.3338 181.359 78.366 181.258 78.3817 181.189C78.833 180.011 79.4968 179.126 80.3732 178.534C81.3339 177.889 82.3358 177.615 83.379 177.712C83.7338 177.74 84.074 177.792 84.3998 177.867C85.5315 178.129 86.3838 178.624 86.9568 179.353C87.547 180.086 87.7514 180.847 87.5701 181.636L80.6772 180.04L80.5055 180.434C80.2253 181.182 80.028 181.805 79.9138 182.303C79.8034 182.783 79.7431 183.202 79.7329 183.561C79.7312 184.591 80.0387 185.493 80.6552 186.268C81.2757 187.026 82.0832 187.52 83.0777 187.75C83.815 187.921 84.5403 187.908 85.2535 187.712L85.4513 187.676L86.2462 187.399C86.3305 187.347 86.5408 187.296 86.877 187.247ZM85.9078 180.736C85.9653 180.171 85.7973 179.645 85.4039 179.156C85.0105 178.668 84.5223 178.356 83.9393 178.221C83.6478 178.154 83.3339 178.144 82.9977 178.193C82.6654 178.224 82.3411 178.339 82.0248 178.537C81.7085 178.735 81.4088 179.017 81.1256 179.385L80.9695 179.593L85.9078 180.736Z" fill="#515938"/>
<path d="M110.538 188.823C110.03 189.564 109.399 190.138 108.644 190.546C107.888 190.936 107.035 191.133 106.085 191.137C104.853 191.142 103.822 190.838 102.993 190.225L102.807 190.067L102.622 189.909L102.635 193.421C102.639 194.353 102.976 195.082 103.647 195.608C102.997 195.892 102.558 196.131 102.33 196.326L101.382 197.069C101.136 197.158 101.013 197.088 101.012 196.859L100.962 183.817C100.958 182.885 100.744 182.111 100.319 181.497C100.071 181.163 99.7799 180.883 99.4446 180.655C99.6554 180.549 99.9016 180.495 100.183 180.494C100.641 180.492 101.178 180.684 101.796 181.068L102.378 181.541L102.615 181.356L102.853 181.249C103.765 180.647 104.82 180.344 106.017 180.339C106.387 180.338 106.748 180.354 107.1 180.388C107.452 180.422 107.778 180.491 108.077 180.595C109.134 180.908 109.982 181.521 110.619 182.434C111.273 183.329 111.603 184.331 111.607 185.439C111.612 186.636 111.255 187.764 110.538 188.823ZM109.549 185.738C109.543 184.224 109.213 183.055 108.559 182.23C107.904 181.388 107.076 180.969 106.072 180.973C105.597 180.975 105.105 181.082 104.595 181.295L103.91 181.615C103.453 181.898 103.12 182.172 102.91 182.437C102.7 182.702 102.595 182.949 102.596 183.177L102.614 187.929C102.615 188.158 102.713 188.413 102.908 188.694C103.12 188.975 103.464 189.29 103.941 189.64L104.629 190.086C105.123 190.366 105.643 190.505 106.188 190.503C106.945 190.5 107.621 190.207 108.218 189.624C108.814 189.023 109.215 188.194 109.422 187.137C109.509 186.644 109.551 186.178 109.549 185.738Z" fill="#515938"/>
<path d="M127.252 188.449L126.94 188.683C126.502 188.963 126.118 189.128 125.787 189.178C125.23 189.263 124.495 188.992 123.582 188.365L123.376 188.236L122.024 187.24L121.754 187.041C120.886 186.478 120.327 186.136 120.077 186.014C119.825 185.874 119.581 185.795 119.347 185.777L118.743 185.842L119.184 188.766C119.244 189.166 119.329 189.492 119.438 189.742L119.597 190.092L117.457 190.417C117.593 190.023 117.621 189.555 117.54 189.016L116.505 182.15C116.392 181.402 115.978 180.842 115.263 180.47L114.949 180.331C115.147 180.229 115.394 180.156 115.69 180.111C116.125 180.045 116.586 180.091 117.072 180.248L117.683 180.583C118.493 179.694 119.472 179.163 120.62 178.988C121.142 178.909 121.722 178.919 122.36 179.018C123.566 179.226 124.246 179.844 124.401 180.871C124.472 181.341 124.369 181.837 124.092 182.36C123.812 182.865 123.433 183.305 122.956 183.68C122.493 184.036 121.802 184.408 120.882 184.797L120.353 185.01L120.126 185.098L119.873 185.19C120.547 185.177 121.158 185.271 121.704 185.473C122.266 185.655 122.885 185.988 123.564 186.472L123.624 186.516L124.777 187.436C125.303 187.855 125.737 188.136 126.079 188.28C126.421 188.423 126.812 188.48 127.252 188.449ZM122.591 182.321C122.673 182.041 122.691 181.745 122.644 181.431C122.515 180.579 122.008 180.05 121.123 179.847C120.789 179.755 120.448 179.736 120.1 179.788C119.769 179.839 119.416 179.972 119.039 180.19C118.662 180.407 118.399 180.608 118.249 180.791C118.096 180.956 118.032 181.126 118.058 181.3L118.637 185.138L119.155 185.032C120.131 184.777 120.902 184.402 121.468 183.906C122.052 183.408 122.426 182.88 122.591 182.321Z" fill="#515938"/>
<path d="M139.45 183.335L139.275 183.771C138.918 184.627 138.461 185.293 137.903 185.768C137.361 186.238 136.668 186.597 135.823 186.844C134.59 187.205 133.295 187.006 131.939 186.247C131.263 185.877 130.694 185.401 130.233 184.821C129.771 184.241 129.437 183.596 129.231 182.886C129.202 182.785 129.176 182.664 129.153 182.524C129.131 182.384 129.11 182.28 129.09 182.212C128.911 180.963 129.059 179.865 129.536 178.918C130.061 177.885 130.802 177.154 131.759 176.728C132.082 176.578 132.404 176.456 132.725 176.363C133.84 176.036 134.825 176.051 135.679 176.406C136.551 176.756 137.099 177.32 137.325 178.098L130.534 180.084L130.576 180.512C130.696 181.302 130.826 181.943 130.969 182.433C131.106 182.906 131.258 183.302 131.423 183.62C131.923 184.519 132.63 185.156 133.545 185.53C134.455 185.887 135.4 185.922 136.38 185.636C137.106 185.423 137.733 185.057 138.259 184.536L138.415 184.408L138.974 183.777C139.022 183.689 139.181 183.542 139.45 183.335ZM135.437 178.127C135.212 177.606 134.809 177.229 134.228 176.996C133.648 176.762 133.07 176.729 132.496 176.897C132.208 176.981 131.93 177.127 131.66 177.334C131.386 177.525 131.158 177.784 130.979 178.111C130.799 178.439 130.675 178.833 130.607 179.293L130.572 179.551L135.437 178.127Z" fill="#515938"/>
<path d="M149.06 172.779C148.791 172.996 148.596 173.208 148.476 173.416C148.357 173.624 148.2 174.05 148.005 174.697L147.742 175.277C147.803 174.98 147.819 174.712 147.791 174.474C147.755 174.22 147.684 173.973 147.577 173.731C147.341 173.2 146.972 172.845 146.468 172.665C145.974 172.462 145.446 172.486 144.883 172.737C144.208 173.039 143.773 173.445 143.576 173.957C143.392 174.541 143.418 175.098 143.653 175.629C143.817 175.999 144.052 176.289 144.357 176.5C144.662 176.711 145.024 176.809 145.441 176.796C145.852 176.767 146.184 176.734 146.438 176.698C146.707 176.655 147.136 176.579 147.723 176.471L148.532 176.341C149.13 176.17 149.72 176.176 150.302 176.359C150.883 176.543 151.31 176.94 151.581 177.552C151.895 178.259 151.874 178.972 151.519 179.69C151.179 180.401 150.672 180.994 149.997 181.469C149.558 181.781 149.129 182.03 148.712 182.217C147.587 182.719 146.546 182.847 145.589 182.6C144.641 182.329 143.924 181.754 143.437 180.872L143.635 180.668L143.71 180.577L144.216 180.09L144.401 179.921C144.648 179.695 144.91 179.289 145.189 178.702L145.154 178.949C145.141 179.224 145.161 179.485 145.213 179.732C145.257 179.963 145.329 180.191 145.429 180.416C145.672 180.963 146.048 181.354 146.556 181.59C147.074 181.802 147.656 181.811 148.302 181.619C148.541 181.551 148.709 181.495 148.806 181.452C149.288 181.237 149.663 180.934 149.933 180.543C150.203 180.153 150.348 179.741 150.367 179.308C150.359 178.985 150.29 178.678 150.162 178.388C150.005 178.034 149.766 177.756 149.444 177.552C149.132 177.325 148.787 177.219 148.408 177.234C148.046 177.242 147.642 177.287 147.198 177.37C146.762 177.43 146.169 177.57 145.42 177.789C145.245 177.829 145.094 177.857 144.967 177.876C144.928 177.874 144.774 177.875 144.506 177.879C144.042 177.874 143.616 177.737 143.227 177.468C142.83 177.182 142.54 176.83 142.354 176.412C142.062 175.752 142.045 175.085 142.304 174.41C142.483 173.945 142.746 173.519 143.094 173.132C143.443 172.745 143.882 172.433 144.412 172.196C146.533 171.248 148.083 171.442 149.06 172.779Z" fill="#515938"/>
<path d="M164.289 170.857L164.235 171.325C164.119 172.246 163.854 173.009 163.442 173.616C163.044 174.213 162.471 174.743 161.723 175.206C160.63 175.882 159.33 176.034 157.822 175.663C157.072 175.484 156.398 175.177 155.8 174.74C155.201 174.303 154.709 173.769 154.322 173.139C154.267 173.049 154.21 172.939 154.151 172.81C154.093 172.681 154.045 172.586 154.008 172.526C153.505 171.369 153.357 170.27 153.566 169.231C153.798 168.094 154.319 167.193 155.128 166.527C155.4 166.297 155.678 166.094 155.963 165.918C156.951 165.307 157.903 165.059 158.821 165.175C159.753 165.281 160.431 165.68 160.855 166.37L154.837 170.09L154.99 170.492C155.314 171.222 155.61 171.805 155.877 172.24C156.135 172.66 156.385 173.002 156.629 173.265C157.349 174 158.199 174.426 159.179 174.544C160.151 174.647 161.071 174.43 161.939 173.893C162.583 173.495 163.09 172.975 163.46 172.332L163.575 172.168L163.947 171.41C163.97 171.313 164.084 171.129 164.289 170.857ZM159.043 166.9C158.689 166.457 158.201 166.2 157.579 166.129C156.957 166.058 156.392 166.18 155.883 166.495C155.628 166.652 155.399 166.866 155.194 167.138C154.979 167.395 154.829 167.705 154.742 168.069C154.656 168.433 154.641 168.845 154.697 169.307L154.731 169.565L159.043 166.9Z" fill="#515938"/>
<path d="M173.005 158.443C173.431 158.821 173.862 159.275 174.298 159.805C174.701 160.294 175.04 160.733 175.315 161.123C175.579 161.498 175.88 162.003 176.22 162.636L176.772 163.722L175.472 164.801C175.232 163.902 174.86 163.09 174.355 162.366C172.766 160.436 171.376 159.234 170.186 158.758C168.985 158.268 167.924 158.406 167.003 159.17C166.759 159.372 166.543 159.609 166.355 159.879C166.013 160.46 165.826 160.993 165.792 161.479C165.761 161.939 165.852 162.298 166.064 162.556L170.193 167.569C170.316 167.719 170.478 167.859 170.677 167.991C170.769 168.075 170.959 168.18 171.246 168.308L169.397 169.842C169.388 169.415 169.227 169.012 168.913 168.632L164.935 163.802C164.577 163.367 164.125 163.068 163.579 162.903C163.036 162.714 162.47 162.692 161.883 162.836L161.633 162.907L162.286 162.33C162.611 162.06 162.898 161.799 163.147 161.547C163.384 161.282 163.618 160.984 163.849 160.656L164.015 160.483L164.168 160.254L165.091 161.375L165.166 161.175L165.272 160.847L165.585 160.106C166.037 159.16 166.588 158.417 167.238 157.877C168.064 157.192 168.984 156.897 169.998 156.993C171.012 157.089 172.014 157.572 173.005 158.443Z" fill="#515938"/>
<path d="M180.143 145.28L180.398 145.981L178.262 148.32C177.835 148.788 177.551 149.412 177.411 150.192C177.283 150.959 177.346 151.83 177.599 152.805C177.791 153.77 178.282 154.616 179.072 155.343C179.888 156.093 180.78 156.46 181.749 156.443C182.717 156.4 183.551 155.996 184.251 155.229C184.572 154.878 184.857 154.423 185.106 153.863L185.503 152.722L185.599 152.343L185.628 152.155C185.845 152.857 185.851 153.555 185.645 154.251C185.426 154.934 184.966 155.66 184.266 156.426C183.507 157.258 182.653 157.776 181.704 157.98C180.768 158.17 179.854 158.035 178.964 157.575C178.621 157.403 178.313 157.192 178.041 156.941C177.432 156.381 177.001 155.626 176.749 154.676C176.496 153.726 176.446 152.58 176.599 151.238L176.715 150.484L176.759 150.202L176.856 149.861L172.94 154.15L172.768 153.633C172.588 153.204 172.48 152.878 172.446 152.655C172.41 152.407 172.439 152.231 172.534 152.127C172.617 152.036 172.733 151.987 172.882 151.981C173.438 151.894 173.868 151.763 174.171 151.588C174.474 151.412 174.863 151.064 175.337 150.545L180.143 145.28Z" fill="#515938"/>
<path d="M193.962 139.952L194.1 140.403C194.362 141.293 194.425 142.099 194.29 142.82C194.165 143.526 193.852 144.241 193.351 144.965C192.62 146.022 191.49 146.682 189.959 146.945C189.201 147.082 188.461 147.07 187.737 146.909C187.014 146.748 186.349 146.456 185.743 146.033C185.656 145.973 185.56 145.895 185.455 145.8C185.349 145.705 185.267 145.638 185.21 145.597C184.285 144.738 183.71 143.79 183.485 142.754C183.243 141.62 183.359 140.585 183.834 139.651C183.991 139.331 184.165 139.034 184.355 138.759C185.016 137.803 185.79 137.195 186.677 136.934C187.574 136.658 188.354 136.752 189.018 137.214L184.993 143.033L185.295 143.34C185.884 143.88 186.389 144.295 186.807 144.587C187.212 144.869 187.578 145.082 187.907 145.225C188.86 145.61 189.81 145.661 190.756 145.376C191.687 145.082 192.443 144.515 193.024 143.675C193.454 143.053 193.711 142.373 193.792 141.636L193.832 141.439L193.87 140.596C193.852 140.498 193.883 140.283 193.962 139.952ZM187.571 138.426C187.069 138.162 186.519 138.121 185.921 138.305C185.323 138.489 184.853 138.827 184.513 139.319C184.343 139.565 184.218 139.854 184.139 140.185C184.045 140.506 184.032 140.85 184.098 141.218C184.164 141.586 184.316 141.971 184.552 142.372L184.687 142.594L187.571 138.426Z" fill="#515938"/>
<path d="M194.682 125.936C194.607 126.274 194.589 126.562 194.626 126.799C194.663 127.035 194.808 127.467 195.061 128.092L195.22 128.709C195.081 128.439 194.926 128.221 194.755 128.053C194.568 127.878 194.357 127.729 194.122 127.608C193.606 127.342 193.096 127.297 192.591 127.472C192.078 127.624 191.682 127.974 191.401 128.522C191.064 129.18 190.98 129.77 191.148 130.292C191.37 130.862 191.739 131.28 192.255 131.547C192.615 131.732 192.98 131.811 193.35 131.784C193.72 131.757 194.063 131.607 194.38 131.335C194.682 131.055 194.92 130.821 195.095 130.634C195.278 130.432 195.564 130.104 195.954 129.651L196.502 129.043C196.861 128.535 197.324 128.17 197.893 127.948C198.461 127.727 199.042 127.769 199.637 128.075C200.325 128.43 200.756 128.999 200.929 129.781C201.11 130.548 201.086 131.328 200.858 132.121C200.712 132.639 200.534 133.102 200.326 133.51C199.764 134.606 199.034 135.358 198.133 135.765C197.225 136.149 196.306 136.15 195.374 135.768L195.4 135.485L195.401 135.367L195.491 134.67L195.529 134.422C195.579 134.092 195.529 133.611 195.378 132.978L195.506 133.193C195.668 133.415 195.847 133.607 196.042 133.767C196.222 133.918 196.421 134.051 196.64 134.164C197.172 134.438 197.709 134.507 198.253 134.372C198.789 134.213 199.249 133.856 199.632 133.301C199.775 133.097 199.871 132.949 199.919 132.855C200.16 132.385 200.263 131.913 200.228 131.44C200.194 130.966 200.048 130.555 199.792 130.205C199.583 129.958 199.337 129.762 199.055 129.617C198.711 129.44 198.35 129.372 197.972 129.415C197.587 129.434 197.252 129.568 196.966 129.817C196.689 130.05 196.403 130.338 196.108 130.682C195.806 131.001 195.432 131.482 194.986 132.123C194.874 132.263 194.775 132.38 194.687 132.474C194.656 132.497 194.537 132.594 194.331 132.765C193.966 133.052 193.548 133.213 193.076 133.247C192.588 133.273 192.141 133.181 191.734 132.971C191.093 132.64 190.662 132.131 190.44 131.442C190.288 130.968 190.226 130.471 190.255 129.951C190.284 129.431 190.43 128.912 190.695 128.395C191.753 126.327 193.082 125.508 194.682 125.936Z" fill="#515938"/>
<defs>
<clipPath id="clip0_118_5248">
<rect width="87.6548" height="87.9887" fill="white" transform="translate(61.8086 40.4951)"/>
</clipPath>
</defs>
</svg>
