<svg width="212" height="200" viewBox="0 0 212 200" fill="none" xmlns="http://www.w3.org/2000/svg">
<g clip-path="url(#clip0_119_5252)">
<path d="M104.065 74.5187C103.996 74.5874 103.944 75.6015 103.944 76.7702V78.8843H100.937H97.9287V80.8608V82.8374H100.937H103.944V86.0515L103.927 89.2827L86.9287 103.291C77.5615 110.991 69.9131 117.333 69.9131 117.384C69.9131 117.436 70.8412 118.622 71.9928 120.014L74.0725 122.541L75.0521 121.716C81.4459 116.387 105.904 96.3296 106.007 96.3296C106.11 96.3296 130.568 116.387 136.962 121.716L137.941 122.541L140.021 120.014C141.172 118.622 142.101 117.436 142.101 117.384C142.101 117.333 134.452 110.991 125.085 103.291L108.087 89.2827L108.069 86.0515V82.8374H111.077H114.085V80.8608V78.8843H111.077H108.087L108.035 76.6843L107.983 74.5015L106.076 74.4499C105.044 74.4327 104.133 74.4671 104.065 74.5187Z" fill="#515938"/>
<path d="M93.3396 110.716L80.9131 121.045V138.731V156.4H89.1631H97.4131V148.459C97.4131 141.739 97.4475 140.347 97.6881 139.401C98.6162 135.62 102.054 132.973 106.007 132.939C109.908 132.922 113.397 135.62 114.326 139.401C114.566 140.347 114.601 141.739 114.601 148.459V156.4H122.851H131.101V138.731V121.045L118.691 110.75C111.868 105.095 106.162 100.437 106.024 100.42C105.869 100.403 100.163 105.044 93.3396 110.716Z" fill="#515938"/>
<path d="M69.9646 134.709L62.024 139.298L62.0068 147.944V156.572L70.0506 156.537L78.0771 156.486L78.1287 143.286C78.1459 136.033 78.1115 130.103 78.0428 130.103C77.9568 130.103 74.3303 132.183 69.9646 134.709Z" fill="#515938"/>
<path d="M133.885 143.286L133.937 156.486L141.98 156.537L150.007 156.572V147.944L149.99 139.298L142.083 134.744C137.752 132.234 134.108 130.155 134.023 130.137C133.902 130.086 133.868 134.675 133.885 143.286Z" fill="#515938"/>
</g>
<path d="M188.564 115.631C188.564 161.194 151.628 198.131 106.064 198.131C60.501 198.131 23.5645 161.194 23.5645 115.631C23.5645 70.0674 60.501 33.1309 106.064 33.1309C151.628 33.1309 188.564 70.0674 188.564 115.631Z" stroke="#515938" stroke-width="2.2" stroke-linecap="round" stroke-linejoin="round" stroke-dasharray="6.6 11"/>
<path d="M26.2161 67.3591L26.8447 67.9823L27.356 68.5447L27.9846 69.1678L28.5775 69.8023C28.0897 70.3226 27.6653 70.8163 27.3043 71.2833C26.9433 71.7504 26.5643 72.3667 26.1674 73.1324L25.1738 74.8772L24.7494 75.6385L24.0222 76.9268L23.5857 77.7115L23.4156 78.0397L23.1604 78.5319C22.9602 78.2298 22.7356 77.9747 22.4868 77.7664C22.2379 77.5581 21.8635 77.3243 21.3634 77.0652L4.67534 68.4149C4.05031 68.0909 3.51328 67.9414 3.06422 67.9663C2.61516 67.9913 2.07701 68.1881 1.44977 68.5568L0.865637 68.938L0.698988 69.03L0.088839 69.5761L2.48224 64.9587L23.2252 75.7108C23.5568 75.6448 23.8261 75.5267 24.0333 75.3565C24.2404 75.1864 24.4533 74.8903 24.672 74.4684C24.8907 74.0466 25.1759 73.3816 25.5276 72.4736C25.8718 71.5419 26.1009 70.6793 26.2147 69.8859C26.3367 69.0769 26.3372 68.2346 26.2161 67.3591Z" fill="#515938"/>
<path d="M32.3485 54.3525C33.4131 55.1329 34.1187 56.0756 34.4652 57.1807C34.8118 58.2857 34.7661 59.4197 34.3283 60.5827C34.0918 61.1731 33.8071 61.6955 33.4742 62.1497C32.5793 63.3705 31.4062 64.0927 29.9548 64.3163C28.4996 64.5153 27.1333 64.1465 25.8557 63.2101C24.8053 62.4401 24.1087 61.5149 23.766 60.4344C23.4195 59.3293 23.4561 58.1778 23.876 56.9799C24.1162 56.414 24.382 55.9323 24.6733 55.5349C24.9855 55.109 25.3648 54.7106 25.8113 54.3396C26.8274 53.5787 27.9093 53.2042 29.057 53.2163C30.2009 53.2038 31.2981 53.5825 32.3485 54.3525ZM31.2248 55.8855C29.9614 54.9595 28.7668 54.5202 27.6408 54.5677C26.5253 54.6011 25.671 55.0223 25.0779 55.8314C24.4744 56.6547 24.3208 57.5787 24.6172 58.6034C24.9429 59.7368 25.7587 60.7822 27.0647 61.7395C27.4053 61.9892 27.8004 62.2242 28.2499 62.4446C29.3428 62.9184 30.3023 63.098 31.1283 62.9833C31.9505 62.8441 32.6165 62.4267 33.1264 61.7311C33.7299 60.9078 33.8905 59.989 33.6084 58.9748C33.2968 57.8517 32.5023 56.822 31.2248 55.8855Z" fill="#515938"/>
<path d="M42.7793 47.256L42.913 47.4594C43.2315 47.9651 43.3639 48.5108 43.3101 49.0966C43.2564 49.6823 42.9872 50.4268 42.5025 51.33C42.2597 51.7567 41.9606 52.1531 41.6049 52.5192C40.3787 53.7817 38.867 54.2517 37.0701 53.9293C35.6843 53.6383 34.5685 53.082 33.7226 52.2604C33.0156 51.5736 32.5619 50.7526 32.3613 49.7971C32.1603 48.8168 32.2515 47.8135 32.6349 46.7873C32.8145 46.2993 33.0203 45.898 33.2522 45.5835C33.4715 45.2567 33.6915 44.9797 33.9122 44.7524C34.5867 44.0581 35.3457 43.6177 36.1894 43.4311C36.7102 43.2991 37.2141 43.2856 37.701 43.3905C37.6971 43.9755 37.5681 44.5251 37.3142 45.039L37.041 45.5098C36.9642 45.3615 36.8627 45.2261 36.7364 45.1035C36.446 44.8214 36.0955 44.6771 35.6846 44.6707C35.2734 44.6393 34.9146 44.7814 34.608 45.097C34.485 45.1984 34.399 45.2743 34.3499 45.3248C33.6877 46.0066 33.4021 46.9069 33.493 48.0257C33.5836 49.1197 34.0455 50.0713 34.8787 50.8807C35.1565 51.1505 35.4773 51.3885 35.8413 51.5948C37.1214 52.323 38.3265 52.598 39.4565 52.4197L40.1447 52.2417C40.8509 52.0199 41.4125 51.6943 41.8294 51.2651C42.418 50.6591 42.7603 49.8015 42.8562 48.6924L42.8215 47.5914L42.7793 47.256Z" fill="#515938"/>
<path d="M55.2651 40.4787L53.8071 41.6142L50.8239 40.19L50.8057 40.6392C50.7046 41.8556 50.5131 42.8414 50.2311 43.5964C49.9492 44.3514 49.5367 44.9961 48.9937 45.5306C48.9351 45.5986 48.8294 45.692 48.6767 45.811C47.9824 46.3517 47.2085 46.5753 46.3548 46.4818C45.5042 46.3635 44.8193 45.9711 44.3002 45.3046C43.7378 44.5826 43.5003 43.7191 43.5876 42.7141C43.6749 41.7092 44.1194 40.6044 44.9213 39.3998C45.0477 39.1898 45.2158 38.9473 45.4256 38.6724C45.6492 38.3867 45.8751 38.1326 46.1035 37.9102L44.628 37.2189C43.9147 36.9045 43.2664 36.9744 42.6832 37.4286C42.4611 37.6017 42.2906 37.8125 42.1719 38.0611C42.2227 37.7539 42.2781 37.5099 42.3382 37.3293C42.3874 37.1348 42.4829 36.8707 42.6247 36.5372L42.7565 36.2338C42.906 35.9389 42.8139 35.5198 42.4801 34.9767L42.7973 34.9973L43.0358 35.0458C43.6256 35.1442 44.3566 35.3667 45.229 35.7134L45.8196 35.9562L55.2651 40.4787ZM50.4718 39.9957L46.4926 38.1091C46.0483 38.4551 45.7081 38.8204 45.4722 39.205C44.359 41.0982 44.2458 42.6141 45.1327 43.7527C45.5869 44.3359 46.132 44.6921 46.7681 44.8213C47.4072 44.9258 48.0114 44.7564 48.5807 44.313C48.6949 44.2018 48.7797 44.1245 48.8353 44.0813C49.1777 43.7476 49.4546 43.387 49.6658 42.9994C49.8909 42.601 50.0843 42.1046 50.2459 41.5102C50.3183 41.2307 50.3706 41.0115 50.4029 40.8525C50.4244 40.6796 50.4474 40.394 50.4718 39.9957Z" fill="#515938"/>
<path d="M62.3369 36.1244C62.2615 36.3749 62.1409 36.6014 61.975 36.8037C61.8091 37.006 61.5451 37.2159 61.183 37.4334C61.0925 37.4878 61.002 37.5422 60.9115 37.5966C60.7576 37.648 60.6429 37.6963 60.5674 37.7416C59.5083 38.2342 58.3613 38.2046 57.1265 37.6529C55.8101 37.068 54.6716 35.9759 53.711 34.3767C53.4209 33.8939 53.1731 33.3447 52.9676 32.7291C52.7529 32.0983 52.5488 31.2971 52.3551 30.3253L52.2732 29.5737L52.0823 28.1793C52.0219 28.0103 51.969 27.8881 51.9237 27.8127C51.679 27.4053 51.226 27.1128 50.5649 26.935L49.9763 26.8267L49.8857 26.7271C49.8162 26.543 49.9262 26.3332 50.2159 26.0976C50.5055 25.862 50.8404 25.5993 51.2206 25.3093L52.3065 24.041L52.4061 23.9504L52.7907 23.5654C52.725 24.8573 52.7951 26.1702 53.0011 27.5042C53.1948 28.6813 53.464 29.7617 53.8087 30.7456C54.1593 31.7052 54.5702 32.5773 55.0415 33.3618C55.3859 33.9352 55.7393 34.4209 56.1017 34.8192C57.2463 36.041 58.2533 36.7604 59.1228 36.9772C59.9982 37.1699 60.9941 36.931 62.1106 36.2603L62.3369 36.1244Z" fill="#515938"/>
<path d="M76.1594 12.703C76.1297 13.0484 76.1285 13.4491 76.1558 13.9053C76.1939 14.339 76.2771 14.8223 76.4054 15.3552L76.5882 16.0462L80.3298 26.8757C80.4735 27.2916 80.5737 27.5548 80.6306 27.6655C80.6875 27.7762 80.8089 27.9391 80.9949 28.1541L81.2567 28.4268L79.3603 29.082L79.0241 28.1089L78.4153 28.9337C77.706 29.7374 76.9106 30.2915 76.0289 30.5961C74.8811 30.9927 73.7259 30.9635 72.5632 30.5087C71.4005 30.0538 70.4619 29.2236 69.7475 28.018C69.6343 27.8523 69.535 27.6725 69.4494 27.4786C69.3638 27.2847 69.2807 27.0713 69.2003 26.8384C68.7003 25.3912 68.7634 24.038 69.3898 22.7788C70.027 21.4973 71.0776 20.6036 72.5415 20.0978C72.6579 20.0576 72.7827 20.0145 72.9157 19.9685C73.0936 19.9443 73.2241 19.9178 73.3073 19.8891C74.29 19.6613 75.2501 19.6647 76.1878 19.8994L75.3946 17.6038C75.2682 17.2378 74.9949 16.9319 74.5748 16.686C74.1489 16.4235 73.6324 16.276 73.0254 16.2437L72.75 16.255C73.3976 15.9196 73.9937 15.4622 74.5384 14.883L74.596 14.8072L75.492 13.5201L76.1594 12.703ZM78.4034 26.3123L76.7999 21.6711C76.6332 21.1886 76.0337 20.8278 75.0014 20.5886L74.2741 20.5047C73.7061 20.4775 73.1892 20.5444 72.7234 20.7053C71.7752 21.0329 71.1367 21.6911 70.808 22.6798C70.4523 23.7524 70.5274 25.0206 71.0332 26.4845C71.1251 26.7507 71.2082 26.964 71.2823 27.1246C71.3564 27.2852 71.473 27.515 71.6321 27.8138C72.1938 28.7928 72.8468 29.4703 73.5912 29.8462C74.3522 30.2164 75.0987 30.2751 75.8306 30.0222C76.2964 29.8613 76.7495 29.5558 77.1899 29.1057L77.6508 28.4995C78.0125 27.9835 78.2472 27.558 78.3549 27.2228C78.4734 26.8653 78.4896 26.5618 78.4034 26.3123Z" fill="#515938"/>
<path d="M95.5293 25.5397L93.7115 25.872L91.7254 23.2293L91.5015 23.6191C90.8492 24.6509 90.2234 25.4362 89.6242 25.9752C89.0249 26.5141 88.361 26.8949 87.6324 27.1176C87.549 27.1508 87.412 27.1847 87.2216 27.2195C86.3559 27.3778 85.5663 27.218 84.8528 26.7401C84.1533 26.2418 83.7277 25.5771 83.5757 24.7461C83.4111 23.8458 83.6 22.9704 84.1422 22.1198C84.6845 21.2692 85.5897 20.4954 86.8578 19.7984C87.0671 19.6707 87.3283 19.5334 87.6414 19.3867C87.9718 19.2369 88.2897 19.1161 88.595 19.0245L87.6067 17.7292C87.1197 17.1204 86.5126 16.8825 85.7855 17.0155C85.5084 17.0661 85.2598 17.1742 85.0396 17.3397C85.2267 17.0908 85.3886 16.9001 85.5255 16.7678C85.6591 16.6181 85.866 16.4282 86.1459 16.1981L86.4031 15.9901C86.6721 15.7977 86.7843 15.3836 86.7396 14.7477L87.0113 14.9127L87.2003 15.066C87.6777 15.426 88.2229 15.9615 88.8359 16.6725L89.2472 17.1608L95.5293 25.5397ZM91.5031 22.8942L88.848 19.3809C88.294 19.4821 87.8234 19.6487 87.4364 19.8805C85.5737 21.044 84.7721 22.3356 85.0317 23.7553C85.1646 24.4825 85.4832 25.0504 85.9873 25.4592C86.5056 25.8475 87.1196 25.9768 87.8295 25.847C87.9821 25.8012 88.0931 25.772 88.1623 25.7594C88.6203 25.622 89.0325 25.4303 89.3991 25.1844C89.7829 24.9353 90.184 24.5846 90.6023 24.1324C90.7957 23.9181 90.9435 23.748 91.0457 23.622C91.1448 23.4786 91.2972 23.236 91.5031 22.8942Z" fill="#515938"/>
<path d="M114.936 22.8874L114.873 23.1225C114.708 23.6968 114.389 24.1589 113.916 24.5087C113.443 24.8586 112.708 25.1533 111.712 25.3928C111.232 25.4957 110.737 25.5363 110.227 25.5147C108.468 25.44 107.111 24.6249 106.156 23.0693C105.45 21.8415 105.123 20.6385 105.173 19.4603C105.214 18.4756 105.525 17.5904 106.105 16.8047C106.702 16.0021 107.512 15.4023 108.533 15.0053C109.016 14.8145 109.453 14.7009 109.842 14.6646C110.232 14.6107 110.585 14.5904 110.902 14.6039C111.869 14.645 112.703 14.9182 113.403 15.4236C113.849 15.7244 114.194 16.0914 114.44 16.5246C114.001 16.9111 113.505 17.1807 112.952 17.3334L112.419 17.4428C112.479 17.2868 112.512 17.1209 112.52 16.9451C112.537 16.5406 112.411 16.183 112.142 15.8721C111.892 15.5444 111.547 15.3712 111.108 15.3525C110.95 15.3282 110.836 15.3145 110.766 15.3116C109.816 15.2712 108.954 15.6574 108.18 16.4701C107.424 17.2659 107.021 18.2441 106.972 19.4046C106.955 19.7915 106.991 20.1894 107.08 20.5983C107.388 22.0383 107.985 23.1206 108.871 23.8452L109.462 24.2403C110.097 24.6196 110.714 24.8219 111.312 24.8473C112.156 24.8832 113.024 24.5677 113.915 23.901L114.714 23.1422L114.936 22.8874Z" fill="#515938"/>
<path d="M127.279 25.3022L126.928 25.6149C126.229 26.223 125.524 26.6154 124.813 26.7922C124.12 26.972 123.34 26.9845 122.473 26.8295C121.209 26.6033 120.137 25.8484 119.258 24.5648C118.817 23.9316 118.518 23.2524 118.362 22.5272C118.206 21.8019 118.192 21.0755 118.323 20.3478C118.341 20.2439 118.372 20.1241 118.414 19.9886C118.456 19.8531 118.483 19.7507 118.495 19.6814C118.889 18.4824 119.509 17.5652 120.355 16.9299C121.284 16.2378 122.271 15.9138 123.318 15.9581C123.674 15.9681 124.017 16.0025 124.346 16.0614C125.489 16.2659 126.365 16.7176 126.973 17.4164C127.599 18.1183 127.84 18.8677 127.697 19.6646L120.733 18.4188L120.58 18.8207C120.337 19.5817 120.17 20.2135 120.081 20.7159C119.994 21.201 119.954 21.623 119.961 21.9819C120.01 23.0097 120.361 23.895 121.015 24.6377C121.672 25.3631 122.503 25.8157 123.508 25.9954C124.253 26.1287 124.977 26.0794 125.68 25.8475L125.875 25.8021L126.656 25.4858C126.738 25.4289 126.945 25.3677 127.279 25.3022ZM125.993 18.8501C126.022 18.2833 125.829 17.766 125.412 17.298C124.995 16.8301 124.492 16.5435 123.903 16.4381C123.609 16.3854 123.294 16.3918 122.961 16.4573C122.63 16.5055 122.312 16.6363 122.006 16.8497C121.699 17.0631 121.414 17.3606 121.149 17.7423L121.003 17.9576L125.993 18.8501Z" fill="#515938"/>
<path d="M139.213 30.6965L138.83 30.7678C138.313 30.8239 137.895 30.801 137.577 30.6989C137.04 30.5271 136.502 29.9573 135.962 28.9896L135.834 28.7824L135.065 27.2886L134.912 26.9898C134.383 26.0999 134.035 25.5446 133.865 25.3239C133.701 25.0865 133.518 24.9077 133.316 24.7877L132.746 24.5773L131.844 27.3931C131.72 27.7786 131.652 28.1078 131.638 28.3807L131.626 28.7649L129.565 28.1044C129.862 27.8115 130.093 27.4052 130.26 26.8856L132.378 20.2735C132.609 19.5528 132.487 18.8668 132.012 18.2156L131.792 17.951C132.014 17.9484 132.268 17.9927 132.553 18.084C132.972 18.2182 133.365 18.4641 133.731 18.8216L134.13 19.393C135.249 18.9569 136.362 18.9161 137.468 19.2705C137.971 19.4316 138.486 19.6983 139.013 20.0706C140.001 20.7937 140.337 21.6497 140.02 22.6386C139.875 23.0912 139.563 23.49 139.083 23.8351C138.608 24.1635 138.073 24.3896 137.479 24.5135C136.907 24.6259 136.123 24.6518 135.126 24.5911L134.557 24.5477L134.315 24.5255L134.047 24.4952C134.658 24.7831 135.163 25.139 135.563 25.5629C135.985 25.9754 136.393 26.5494 136.785 27.2851L136.819 27.3515L137.444 28.6884C137.73 29.2973 137.994 29.7423 138.237 30.0233C138.479 30.3043 138.805 30.5287 139.213 30.6965ZM137.755 23.1327C137.953 22.9189 138.1 22.6611 138.197 22.3594C138.46 21.5381 138.24 20.8394 137.538 20.2632C137.279 20.0324 136.982 19.8634 136.647 19.756C136.328 19.6539 135.952 19.6166 135.519 19.6439C135.085 19.6713 134.76 19.7335 134.544 19.8307C134.333 19.9111 134.201 20.0351 134.147 20.2027L132.963 23.8984L133.474 24.0344C134.462 24.2399 135.319 24.2466 136.046 24.0544C136.79 23.8676 137.359 23.5603 137.755 23.1327Z" fill="#515938"/>
<path d="M147.973 20.3486C147.616 20.4618 147.285 20.4516 146.978 20.3179C146.688 20.1912 146.463 19.9587 146.303 19.6202C146.181 19.2404 146.183 18.9054 146.31 18.615C146.458 18.2762 146.702 18.0467 147.042 17.9264C147.39 17.79 147.725 17.7921 148.048 17.9329C148.37 18.0736 148.592 18.3142 148.712 18.6547C148.839 18.9791 148.829 19.3107 148.681 19.6494C148.533 19.9882 148.297 20.2213 147.973 20.3486ZM143.007 32.9869L140.829 32.0368L141.279 31.5995C141.428 31.434 141.548 31.2465 141.64 31.0368L144.406 24.6969C144.596 24.2614 144.681 23.9337 144.662 23.7141C144.649 23.4783 144.531 23.1771 144.307 22.8105L143.709 22.0024L146.806 23.3535L143.164 31.7018L142.984 32.3142C142.972 32.3858 142.968 32.4608 142.972 32.5394C142.964 32.6896 142.976 32.8387 143.007 32.9869Z" fill="#515938"/>
<path d="M161.542 42.1438L160.674 43.0331L159.242 42.1366C160.179 41.4358 161.04 40.4588 161.824 39.2057C161.974 38.967 162.128 38.7209 162.286 38.4673C162.466 38.0812 162.615 37.7595 162.735 37.5021C162.864 37.2299 162.957 36.9977 163.015 36.8055C163.088 36.6228 163.2 36.2777 163.352 35.7704C163.513 35.0821 163.465 34.4291 163.208 33.8114C162.975 33.1881 162.575 32.699 162.008 32.3442C161.456 31.9986 160.802 31.8172 160.044 31.7999C159.887 31.7848 159.649 31.8014 159.328 31.8497L159.347 32.0176L159.322 32.1575C159.305 32.5829 159.141 33.176 158.831 33.937C158.745 34.1738 158.621 34.4387 158.458 34.7314C158.296 35.0242 158.084 35.3795 157.822 35.7972C157.365 36.5282 156.787 37.3505 156.091 38.2641L155.035 39.503L153.603 38.6065C153.98 38.3027 154.313 38.0026 154.603 37.7062C154.916 37.4042 155.185 37.0741 155.409 36.7161C156.773 34.5381 157.502 32.8251 157.599 31.577C157.709 30.3384 157.288 29.4202 156.333 28.8225C156.079 28.6637 155.798 28.5497 155.488 28.4805C154.923 28.3551 154.42 28.3622 153.98 28.5018C153.539 28.6414 153.23 28.8529 153.053 29.1364L149.607 34.6411C149.504 34.8052 149.422 35.0029 149.36 35.2342L149.239 35.875L147.203 34.6002C147.638 34.4364 147.977 34.1605 148.22 33.7726L151.539 28.4693C151.82 28.0217 151.964 27.5927 151.971 27.1823C151.988 26.757 151.868 26.2037 151.609 25.5226L151.503 25.1447L152.166 25.5286C152.464 25.7154 152.749 25.8732 153.022 26.0021C153.318 26.1255 153.673 26.2545 154.087 26.3891L154.348 26.5208L154.636 26.6078L153.865 27.8385L154.431 27.8809C155.93 28.0722 157.098 28.4294 157.933 28.9524C158.381 29.2325 158.717 29.5574 158.943 29.9269C159.178 30.2816 159.296 30.6567 159.298 31.0522L159.908 31.1226C161.122 31.2391 162.013 31.4748 162.579 31.8297C163.937 32.6795 164.723 33.68 164.936 34.8313C165.178 36.1038 164.757 37.6053 163.674 39.3358C163.151 40.1712 162.44 41.1072 161.542 42.1438Z" fill="#515938"/>
<path d="M175.303 49.3379C174.408 50.3079 173.392 50.9027 172.254 51.1226C171.117 51.3424 169.996 51.1693 168.889 50.6033C168.329 50.3018 167.842 49.9601 167.429 49.5781C166.316 48.5514 165.731 47.3044 165.672 45.8371C165.639 44.3688 166.159 43.0526 167.233 41.8887C168.117 40.9317 169.114 40.3438 170.227 40.1249C171.364 39.9051 172.504 40.0712 173.647 40.6234C174.182 40.9258 174.631 41.2441 174.993 41.5784C175.381 41.9365 175.734 42.3583 176.052 42.8438C176.694 43.9391 176.944 45.0563 176.803 46.1953C176.686 47.3334 176.186 48.3809 175.303 49.3379ZM173.906 48.0486C174.969 46.8976 175.54 45.7601 175.619 44.636C175.712 43.5238 175.39 42.6274 174.653 41.947C173.902 41.2546 173.002 40.9979 171.95 41.177C170.787 41.3729 169.657 42.0658 168.558 43.2556C168.272 43.566 167.994 43.9321 167.724 44.3539C167.13 45.3865 166.844 46.3196 166.865 47.1532C166.91 47.9859 167.25 48.6947 167.884 49.2797C168.634 49.9721 169.529 50.2352 170.568 50.0691C171.719 49.886 172.832 49.2126 173.906 48.0486ZM179.053 41.7336L178.459 41.8321L177.197 39.2297C176.857 39.1312 176.294 38.9233 175.509 38.6059C175.255 38.4915 174.882 38.3383 174.388 38.1463L174.556 37.6539C175.302 37.9354 175.906 38.0981 176.369 38.1418C176.856 38.1846 177.502 38.1463 178.307 38.0269C178.233 38.6776 178.252 39.2933 178.362 39.8743C178.485 40.4423 178.715 41.0621 179.053 41.7336Z" fill="#515938"/>
<path d="M184.654 58.5985C184.272 59.0211 183.813 59.4481 183.28 59.8797C182.787 60.2781 182.345 60.613 181.953 60.8844C181.575 61.1447 181.068 61.4415 180.432 61.7746L179.342 62.3163L178.28 61.0025C179.18 60.7724 179.995 60.4081 180.724 59.9095C182.667 58.3381 183.883 56.9588 184.371 55.7716C184.874 54.5733 184.749 53.5088 183.996 52.5782C183.797 52.3318 183.564 52.1132 183.296 51.9221C182.72 51.5733 182.189 51.3795 181.706 51.3408C181.246 51.3047 180.887 51.3918 180.627 51.6021L175.577 55.6855C175.426 55.8072 175.284 55.9674 175.15 56.166C175.066 56.2571 174.958 56.446 174.828 56.7325L173.317 54.8644C173.743 54.8594 174.148 54.702 174.531 54.3922L179.396 50.4582C179.834 50.1041 180.138 49.6544 180.309 49.1093C180.504 48.5668 180.532 48.0004 180.395 47.4102L180.327 47.159L180.896 47.8199C181.161 48.1483 181.418 48.4383 181.667 48.6899C181.929 48.9304 182.223 49.168 182.549 49.4027L182.719 49.5709L182.946 49.7264L181.817 50.6393L182.016 50.7166L182.342 50.8263L183.077 51.1482C184.017 51.6105 184.753 52.1702 185.284 52.8271C185.959 53.6619 186.243 54.5868 186.135 55.6016C186.028 56.6164 185.534 57.6154 184.654 58.5985Z" fill="#515938"/>
<path d="M193.727 59.5254C193.368 59.4228 193.097 59.231 192.915 58.9502C192.743 58.6842 192.684 58.366 192.738 57.9958C192.846 57.6116 193.033 57.3335 193.299 57.1615C193.61 56.9608 193.94 56.9044 194.29 56.9923C194.655 57.0707 194.933 57.2576 195.124 57.5532C195.316 57.8488 195.367 58.1717 195.279 58.522C195.206 58.8627 195.014 59.1334 194.704 59.3341C194.394 59.5348 194.068 59.5986 193.727 59.5254ZM182.605 67.3149L181.315 65.3197L181.932 65.2038C182.147 65.1482 182.351 65.0583 182.543 64.9341L188.351 61.1783C188.75 60.9203 189.003 60.6944 189.108 60.5006C189.228 60.2972 189.296 59.9808 189.311 59.5515L189.26 58.5475L191.095 61.3852L183.446 66.3308L182.957 66.7413C182.908 66.7943 182.863 66.8547 182.823 66.9225C182.733 67.0433 182.661 67.1741 182.605 67.3149Z" fill="#515938"/>
<path d="M189.7 80.4503L188.868 78.8003L190.842 76.1488L190.405 76.044C189.231 75.7097 188.301 75.3311 187.615 74.9085C186.928 74.4858 186.375 73.9564 185.956 73.3203C185.901 73.2497 185.83 73.1279 185.742 72.9551C185.346 72.1693 185.276 71.3667 185.533 70.5473C185.814 69.7356 186.331 69.1395 187.086 68.7591C187.903 68.347 188.796 68.2809 189.765 68.5609C190.734 68.8409 191.732 69.4908 192.759 70.5105C192.94 70.6751 193.146 70.8869 193.375 71.1459C193.612 71.4205 193.818 71.6914 193.992 71.9584L194.955 70.6445C195.402 70.0054 195.458 69.3559 195.126 68.6959C194.999 68.4444 194.825 68.2365 194.604 68.0719C194.896 68.1811 195.124 68.2826 195.29 68.3765C195.471 68.4625 195.712 68.6073 196.011 68.8109L196.284 68.9988C196.544 69.2026 196.973 69.1932 197.57 68.9708L197.489 69.278L197.395 69.5027C197.185 70.0622 196.825 70.7364 196.316 71.5253L195.964 72.0578L189.7 80.4503ZM191.101 75.8409L193.721 72.3017C193.468 71.7988 193.175 71.3945 192.843 71.0887C191.201 69.6304 189.736 69.2261 188.447 69.876C187.787 70.2089 187.332 70.6748 187.082 71.2739C186.856 71.8808 186.906 72.5063 187.231 73.1506C187.318 73.2841 187.377 73.3823 187.409 73.4452C187.67 73.8457 187.97 74.187 188.31 74.4692C188.657 74.7671 189.107 75.0529 189.659 75.3264C189.919 75.4515 190.124 75.5452 190.273 75.6077C190.439 75.6622 190.715 75.7399 191.101 75.8409Z" fill="#515938"/>
<defs>
<clipPath id="clip0_119_5252">
<rect width="88" height="88" fill="white" transform="translate(60.9072 76.9941)"/>
</clipPath>
</defs>
</svg>
