<svg width="40" height="56" viewBox="0 0 40 56" fill="none" xmlns="http://www.w3.org/2000/svg">
<path d="M15.7376 0.114286C14.309 0.365715 12.6061 1.06286 11.429 1.86286C11.1433 2.05714 10.5604 2.54857 10.1261 2.96C6.40041 6.53714 5.80613 12.2057 8.72041 16.5143C9.7147 17.9771 12.149 20 12.9261 20C13.4176 20 13.7718 19.4171 13.509 19.0171C13.4633 18.9371 13.0976 18.6857 12.6976 18.4571C10.7661 17.3257 9.20041 15.2457 8.50327 12.9143C8.17184 11.7829 8.1947 9.29143 8.54898 8.05714C9.41755 5.05143 11.749 2.68571 14.8004 1.71429C16.0233 1.32572 18.1376 1.26857 19.4861 1.58857C23.2118 2.48 25.9661 5.48571 26.5261 9.25714C26.9718 12.3086 25.829 15.3486 23.4404 17.4857C22.8004 18.0571 22.629 18.2857 22.629 18.5371C22.629 18.9257 23.0747 19.2571 23.429 19.1429C23.8518 19.0057 25.0861 17.8629 25.7376 17.0057C27.8747 14.1943 28.5033 10.6857 27.4633 7.39429C26.3776 3.94286 23.5547 1.24571 20.0576 0.331429C19.029 0.0685711 16.6518 -0.0571423 15.7376 0.114286Z" fill="#515938"/>
<path d="M16.5147 3.27997C14.949 3.51997 13.5547 4.18283 12.4918 5.17711C9.79468 7.70283 9.33754 11.5771 11.3718 14.6285C11.9204 15.4628 12.5833 16.1143 12.869 16.1143C12.9604 16.1143 13.1661 15.9885 13.3261 15.8285C13.6918 15.4628 13.6233 15.2114 12.9261 14.4457C11.5204 12.9143 11.0747 10.5485 11.8175 8.52569C12.7204 6.0114 15.2347 4.38854 17.8633 4.60568C20.0233 4.78854 21.7947 5.99997 22.7547 7.94283C23.8404 10.16 23.4975 12.6514 21.829 14.56C21.2004 15.2685 21.1318 15.5314 21.4861 15.8857C21.8633 16.2628 22.1604 16.1714 22.8233 15.4514C23.509 14.72 24.2518 13.3371 24.5147 12.2857C24.7318 11.4171 24.7318 9.74854 24.5033 8.79997C24.0347 6.79997 22.5375 4.92568 20.6861 4.03426C20.149 3.78283 19.4861 3.50854 19.2004 3.43997C18.5718 3.30283 16.9947 3.19997 16.5147 3.27997Z" fill="#515938"/>
<g filter="url(#filter0_d_120_5329)">
<path d="M16.1714 9.93148C15.5314 10.2172 15.0171 10.6858 14.6514 11.3029L14.3428 11.8286L14.3085 21.8515C14.2971 27.3715 14.24 31.8858 14.1942 31.8858C14.1485 31.8858 13.3142 31.0858 12.3428 30.1029C10.4457 28.1943 9.93138 27.84 8.79995 27.6343C7.94281 27.4858 6.91424 27.7372 6.09138 28.2972C5.02852 29.0286 4.53709 30 4.52566 31.3715C4.50281 33.0743 4.35423 32.88 11.3942 39.8972C14.7771 43.2686 17.7828 46.1829 18.0914 46.3886C18.8457 46.9029 20.1485 47.4972 21.0285 47.7372C22.1371 48.0458 27.7142 48.0343 28.7885 47.7372C31.6228 46.9372 33.9314 44.8572 34.9257 42.2172C35.52 40.64 35.5428 40.2743 35.5428 33.0972C35.5428 25.3943 35.5657 25.6115 34.5942 24.6286C33.5885 23.6343 32.3085 23.3829 31.0857 23.9543C30.7428 24.1143 30.4457 24.2058 30.4342 24.1486C30.4114 24.1029 30.24 23.7943 30.0571 23.4629C29.28 22.1029 27.5314 21.5543 26.08 22.2286L25.4857 22.5029L25.2114 21.9658C24.8685 21.2915 24.32 20.7658 23.6571 20.4686C22.9714 20.1601 21.84 20.1486 21.1542 20.4572C20.88 20.5829 20.64 20.6858 20.6171 20.6858C20.5942 20.6858 20.5714 18.8343 20.5714 16.5601C20.5714 14 20.5257 12.2629 20.4457 11.9543C20.2628 11.2343 19.5885 10.4115 18.8685 10.0343C18.3657 9.77148 18.1142 9.71434 17.44 9.71434C16.9028 9.71434 16.4799 9.79434 16.1714 9.93148ZM18.1714 11.2229C18.4571 11.3715 18.8 11.6572 18.9371 11.8743L19.2 12.2629V20.1829C19.2 27.9658 19.2 28.1143 19.4285 28.3429C19.7028 28.6172 19.9771 28.6286 20.32 28.3886C20.5714 28.2172 20.5714 28.1715 20.5714 25.6458C20.5714 22.8572 20.6171 22.5715 21.2 22.0229C21.8628 21.4172 22.9942 21.4286 23.6114 22.0458C24.1942 22.6172 24.2285 22.8458 24.2285 26.0458C24.2285 28.9829 24.2285 29.0172 24.48 29.1886C24.8228 29.4286 25.0971 29.4172 25.3714 29.1429C25.5885 28.9258 25.6 28.7658 25.6 26.7315C25.6 24.7201 25.6228 24.5143 25.84 24.1601C26.5371 23.0286 28.2285 23.0172 28.9142 24.1372C29.12 24.4915 29.1428 24.7201 29.1428 27.2801C29.1428 29.1543 29.1885 30.1372 29.28 30.3429C29.4514 30.7201 29.8628 30.8229 30.2285 30.5829L30.5142 30.4001V28.4801C30.5142 26.7201 30.5371 26.5258 30.7771 26.0572C31.1542 25.3029 31.6685 24.9943 32.4685 25.0515C33.1885 25.1086 33.6457 25.3829 33.9657 25.9772C34.1485 26.3086 34.16 26.9486 34.16 33.0858C34.1714 40.5715 34.16 40.7429 33.4285 42.2629C32.5371 44.1486 31.12 45.44 29.0857 46.2058L28.1714 46.56L25.3257 46.6058C22.2057 46.6515 21.5771 46.5829 20.3428 46.0686C18.88 45.4629 18.2857 44.9258 12.1485 38.7543C5.58852 32.1715 5.73709 32.3543 5.86281 31.1201C5.99995 29.8515 6.98281 28.9715 8.28566 28.9829C8.73138 28.9829 9.10852 29.0515 9.37138 29.1886C9.58852 29.3143 10.9028 30.5258 12.2742 31.8972C13.6571 33.2801 14.8685 34.4001 14.9714 34.4001C15.0742 34.4001 15.2457 34.3315 15.3485 34.2515C15.5314 34.1258 15.5428 33.3943 15.5428 23.5772C15.5428 16.5715 15.5771 12.8572 15.6571 12.48C15.8399 11.6343 16.5714 11.0172 17.4285 10.9829C17.5657 10.9715 17.8971 11.0858 18.1714 11.2229Z" fill="#392E04"/>
</g>
<defs>
<filter id="filter0_d_120_5329" x="0.521484" y="9.71436" width="39.0215" height="46.25" filterUnits="userSpaceOnUse" color-interpolation-filters="sRGB">
<feFlood flood-opacity="0" result="BackgroundImageFix"/>
<feColorMatrix in="SourceAlpha" type="matrix" values="0 0 0 0 0 0 0 0 0 0 0 0 0 0 0 0 0 0 127 0" result="hardAlpha"/>
<feOffset dy="4"/>
<feGaussianBlur stdDeviation="2"/>
<feComposite in2="hardAlpha" operator="out"/>
<feColorMatrix type="matrix" values="0 0 0 0 0 0 0 0 0 0 0 0 0 0 0 0 0 0 0.49 0"/>
<feBlend mode="normal" in2="BackgroundImageFix" result="effect1_dropShadow_120_5329"/>
<feBlend mode="normal" in="SourceGraphic" in2="effect1_dropShadow_120_5329" result="shape"/>
</filter>
</defs>
</svg>
